SplineFontDB: 3.2
FontName: DotsnLines
FullName: Dots n Lines
FamilyName: DotsnLines
Weight: Regular
Copyright: Copyright (c) 2025, Farran De Tao / Phlowyd Designs
UComments: "2025-3-10: Created with FontForge (http://fontforge.org)"
Version: 001.000
ItalicAngle: 0
UnderlinePosition: -100
UnderlineWidth: 50
Ascent: 800
Descent: 200
InvalidEm: 0
LayerCount: 2
Layer: 0 0 "Back" 1
Layer: 1 0 "Fore" 0
XUID: [1021 852 -1484542570 26393]
OS2Version: 0
OS2_WeightWidthSlopeOnly: 0
OS2_UseTypoMetrics: 1
CreationTime: 1741601839
ModificationTime: 1741706254
OS2TypoAscent: 0
OS2TypoAOffset: 1
OS2TypoDescent: 0
OS2TypoDOffset: 1
OS2TypoLinegap: 0
OS2WinAscent: 0
OS2WinAOffset: 1
OS2WinDescent: 0
OS2WinDOffset: 1
HheadAscent: 0
HheadAOffset: 1
HheadDescent: 0
HheadDOffset: 1
OS2Vendor: 'PfEd'
MarkAttachClasses: 1
DEI: 91125
Encoding: UnicodeFull
UnicodeInterp: none
NameList: AGL For New Fonts
DisplaySize: -96
AntiAlias: 1
FitToEm: 0
WinInfo: 60 10 6
BeginPrivate: 0
EndPrivate
BeginChars: 1114112 86

StartChar: A
Encoding: 65 65 0
Width: 903
Flags: W
LayerCount: 2
Fore
SplineSet
486 800 m 4
 489 796 507 756 510 747 c 4
 522 703 586 545 609 499 c 4
 617 485 624 467 626 461 c 4
 640 416 736 241 763 212 c 4
 771 202 782 186 790 175 c 4
 799 161 818 137 834 121 c 4
 858 96 862 90 863 76 c 4
 863 74 863 72 863 70 c 4
 863 60 861 57 848 45 c 4
 840 37 834 29 834 26 c 4
 834 25 l 4
 834 24 835 24 835 24 c 4
 835 23 833 22 831 22 c 4
 829 22 828 22 826 23 c 4
 824 24 821 24 819 24 c 4
 815 24 813 23 812 22 c 4
 811 20 806 17 802 17 c 4
 796 17 794 16 794 10 c 4
 794 2 791 1 774 1 c 4
 759 1 754 -1 750 -8 c 4
 747 -12 742 -15 737 -15 c 4
 733 -15 715 0 696 19 c 4
 661 55 644 77 587 161 c 4
 548 219 496 324 454 428 c 4
 420 514 413 528 406 528 c 4
 404 528 402 527 397 521 c 4
 391 512 388 507 388 504 c 4
 388 500 379 473 370 455 c 4
 362 439 353 413 349 401 c 4
 347 394 343 386 340 382 c 4
 334 375 317 338 317 332 c 4
 317 322 299 281 289 269 c 4
 273 250 253 215 250 201 c 4
 247 190 232 168 186 107 c 4
 177 96 159 77 145 66 c 4
 128 53 117 42 114 38 c 4
 109 31 104 29 90 29 c 4
 77 29 70 27 65 21 c 4
 62 17 59 15 55 15 c 4
 53 15 52 15 50 16 c 6
 40 18 l 5
 50 28 l 6
 57 35 62 44 63 50 c 4
 64 57 69 66 77 74 c 4
 87 83 120 141 150 200 c 4
 196 290 230 384 269 477 c 4
 284 513 304 555 313 585 c 4
 332 655 338 684 338 694 c 4
 338 700 344 711 351 721 c 4
 358 731 363 741 363 744 c 4
 363 748 371 751 382 753 c 4
 393 755 404 760 410 766 c 4
 414 771 422 775 428 775 c 4
 432 775 442 779 460 788 c 4
 478 798 484 800 486 800 c 4
498 174 m 6
 504 174 508 171 521 160 c 4
 532 150 539 138 542 127 c 4
 544 120 544 119 544 116 c 4
 544 109 541 105 522 87 c 4
 509 75 485 58 472 50 c 4
 459 42 453 37 443 31 c 4
 430 23 426 22 422 22 c 4
 409 22 389 21 376 21 c 4
 364 21 357 22 355 24 c 4
 352 27 354 37 353 44 c 4
 352 52 349 58 349 67 c 4
 349 71 350 74 351 77 c 4
 360 97 352 90 371 100 c 4
 392 111 407 130 438 142 c 4
 448 146 458 156 466 162 c 4
 474 167 483 172 490 173 c 4
 492 174 494 174 498 174 c 6
EndSplineSet
EndChar

StartChar: B
Encoding: 66 66 1
Width: 783
Flags: W
HStem: 4 95<176 433.058> 704 96<203.65 405.027>
VStem: 555 165<528.882 610.196> 585 158<181.135 296.988>
LayerCount: 2
Fore
SplineSet
259 704 m 4xe0
 190 704 69 681 43 681 c 6
 42 681 l 6
 40 681 40 682 40 684 c 4
 40 689 47 698 50 702 c 4
 65 722 130 750 149 758 c 6
 164 764 l 6
 186 772 204 780 230 784 c 4
 241 786 260 790 273 793 c 4
 292 797 347 800 388 800 c 4
 431 800 445 800 506 784 c 4
 596 762 668 719 694 673 c 4
 717 635 720 598 720 597 c 4xe0
 720 583 716 555 689 514 c 4
 675 493 630 463 630 446 c 4
 630 445 631 445 631 444 c 4
 633 431 639 432 653 428 c 4
 684 419 724 384 728 363 c 4
 743 312 743 312 743 284 c 4
 743 192 719 153 622 91 c 4
 621 90 543 54 478 36 c 4
 439 25 352 9 188 4 c 4
 128 3 113 -1 75 -2 c 4
 70 -2 64 -4 59 -4 c 4
 49 -4 40 8 40 13 c 4
 40 29 94 58 137 80 c 5
 176 99 l 5
 289 102 l 6
 351 104 411 107 422 109 c 4
 442 114 445 113 512 119 c 4
 572 124 585 126 585 189 c 4xd0
 585 236 571 297 552 313 c 4
 524 336 475 353 455 353 c 4
 434 353 379 340 367 340 c 4
 356 340 354 341 354 350 c 4
 354 356 357 363 361 368 c 4
 370 379 445 418 480 430 c 4
 520 444 538 465 551 514 c 4
 554 524 555 534 555 544 c 4
 555 582 537 613 505 643 c 4
 474 671 336 704 259 704 c 4xe0
85 309 m 5
 57 312 53 312 53 340 c 4
 53 372 80 395 141 427 c 4
 181 448 198 454 208 455 c 5
 209 456 l 5
 227 456 254 418 254 399 c 4
 254 390 249 380 236 366 c 4
 213 341 204 337 160 321 c 4
 137 313 126 309 114 309 c 4
 110 309 107 309 102 310 c 5
 102 310 94 309 88 309 c 6
 85 309 l 5
EndSplineSet
EndChar

StartChar: C
Encoding: 67 67 2
Width: 787
Flags: W
HStem: -4 121<318.452 666.423> 692 107<513.9 692.654>
VStem: 40 160<227.418 451.953>
LayerCount: 2
Fore
SplineSet
487 -4 m 6
 458 -4 l 6
 418 -4 377 -3 338 -1 c 4
 227 3 216 4 165 32 c 4
 109 63 80 93 62 138 c 4
 44 183 40 199 40 255 c 4
 40 329 40 387 54 431 c 4
 71 483 92 530 110 550 c 4
 118 560 131 574 138 584 c 4
 141 587 290 755 501 790 c 4
 534 796 582 799 620 799 c 4
 645 799 666 798 676 795 c 4
 697 789 731 776 731 767 c 4
 731 751 685 692 650 692 c 4
 626 692 594 704 510 704 c 4
 427 704 385 691 361 681 c 4
 317 661 257 599 241 571 c 4
 214 521 200 455 200 371 c 4
 200 225 224 238 224 219 c 4
 224 215 234 200 248 185 c 4
 307 121 397 117 484 117 c 6
 509 117 l 6
 538 117 740 109 742 109 c 4
 746 109 747 107 747 104 c 4
 747 89 705 37 704 36 c 4
 697 29 690 26 667 6 c 4
 655 -4 623 -6 588 -6 c 4
 555 -6 517 -4 487 -4 c 6
EndSplineSet
EndChar

StartChar: Eth
Encoding: 208 208 3
Width: 888
Flags: HW
HStem: 2 87<179.344 543.82> 335 125<87.2237 433.858> 706 94<131.82 485.498>
VStem: 659 189<250.318 530.937>
LayerCount: 2
Fore
SplineSet
377 706 m 4
 370 706 114 693 111 693 c 4
 61 693 50 718 50 719 c 4
 50 726 63 735 63 735 c 6
 73 747 102 768 122 775 c 4
 156 788 176 790 214 792 c 4
 250 794 302 800 354 800 c 4
 468 800 572 800 686 733 c 4
 757 692 802 620 802 618 c 4
 804 605 848 538 848 434 c 4
 848 390 844 320 833 270 c 4
 830 256 823 245 817 230 c 4
 793 167 769 153 719 114 c 4
 682 86 617 42 532 20 c 4
 530 19 448 2 338 2 c 4
 321 2 303 2 288 2 c 4
 256 2 235 0 220 0 c 4
 175 0 80 9 66 15 c 4
 59 18 56 20 56 25 c 4
 56 40 105 78 144 93 c 6
 178 106 l 5
 264 97 l 6
 313 92 350 89 388 89 c 4
 466 89 504 95 541 104 c 4
 574 111 598 112 620 169 c 4
 635 210 646 217 655 306 c 4
 657 331 659 355 659 376 c 4
 659 452 647 543 601 599 c 4
 575 631 500 706 377 706 c 4
26 343 m 4
 17 343 3 345 3 359 c 4
 3 402 106 449 113 451 c 4
 134 457 172 460 225 460 c 4
 246 460 473 452 475 452 c 4
 490 450 509 454 518 443 c 4
 520 441 520 438 520 435 c 4
 520 430 518 425 516 421 c 4
 509 405 476 387 470 382 c 4
 460 375 453 366 442 360 c 4
 431 354 403 335 329 335 c 4
 246 335 76 345 54 345 c 4
 45 345 35 343 26 343 c 4
EndSplineSet
EndChar

StartChar: Thorn
Encoding: 222 222 4
Width: 868
Flags: W
HStem: -28 158<133 204> 182 108<106.007 497.062> 184 99<252.938 652.004> 537 93<129.208 571.062> 678 141<106.414 181.938>
VStem: 61 213<17 83> 662 166<326.54 445.911>
LayerCount: 2
Fore
SplineSet
201 831 m 0x9e
 216 831 245 827 245 785 c 0
 245 711 145 678 108 678 c 0
 92 678 46 683 46 722 c 0
 46 731 49 741 53 749 c 0
 61 766 79 777 94 788 c 0
 110 800 125 813 144 819 c 0
 161 824 182 831 201 831 c 0x9e
348 630 m 0
 351 630 474 628 475 628 c 0
 517 628 560 629 598 629 c 0
 646 629 684 621 710 606 c 0
 752 582 793 549 816 507 c 0
 823 493 828 475 828 434 c 0
 828 400 823 357 813 339 c 0
 806 327 797 309 792 300 c 0
 777 272 724 228 709 222 c 0
 651 199 671 191 526 184 c 0
 511 183 496 183 483 183 c 0
 455 183 430 184 403 184 c 0xbe
 361 184 297 182 244 182 c 0
 204 182 63 187 61 187 c 0
 49 187 49 186 49 186 c 0
 45 186 40 192 40 197 c 0
 40 198 51 232 106 269 c 0
 130 285 127 284 134 286 c 0
 147 289 227 290 249 290 c 0xde
 333 290 417 283 501 283 c 0xbe
 502 283 609 284 633 291 c 0
 647 295 662 300 662 361 c 0
 662 400 651 448 605 490 c 0
 557 534 533 530 492 534 c 1
 453 537 431 537 399 537 c 0
 362 537 324 536 287 536 c 0
 208 536 83 540 81 540 c 0
 75 540 67 538 61 538 c 0
 57 538 49 539 49 549 c 0
 49 568 75 585 91 593 c 0
 142 619 201 630 348 630 c 0
61 17 m 0
 61 51 155 130 204 130 c 0
 206 130 208 130 209 130 c 2
 222 126 l 2
 231 123 230 126 239 122 c 0
 252 116 274 104 274 83 c 0
 274 74 270 65 266 57 c 0
 255 37 173 -20 155 -25 c 0
 148 -27 140 -28 133 -28 c 0
 132 -28 89 -27 77 -17 c 0
 67 -9 61 4 61 17 c 0
EndSplineSet
EndChar

StartChar: uni01F6
Encoding: 502 502 5
Width: 1251
Flags: HW
HStem: -3 101<866.488 1025.53> 333 151<354.671 443.881> 788 20G<163.173 181> 798 20G<1158.75 1172.03>
VStem: 43 181<70.7479 704.842> 563 190<239.139 743> 1030 173<310.396 616.031 657.388 773.862> 1040 171<106.092 466.604 492.969 623.205>
LayerCount: 2
Fore
SplineSet
1040 321 m 2xdd
 1040 363.919921875 1033 526.651367188 1033 628 c 2
 1033 690 l 2
 1033 702 1030 714 1030 726 c 0
 1030 729 1031 731 1031 734 c 0
 1034 761 1033 762 1058 778 c 0
 1088.28125 797.466796875 1151.49511719 818 1166 818 c 0
 1178.05175781 818 1181.60449219 807.279296875 1193 805 c 0
 1200 803 1203 798 1203 777 c 0xde
 1204.25976562 712.750976562 1211 727.63671875 1211 654 c 0
 1211 642 1210 630 1210 618 c 0
 1210 576 1209 533 1209 491 c 2
 1209 469 l 2
 1209 418 1211 359 1211 308 c 0
 1211 266 1209 228 1205 205 c 0
 1202 188 1198 159 1196 140 c 0
 1191 100 1184 86 1158 73 c 0
 1148 68 1130 57 1115 50 c 0
 1113.89550781 49.490234375 1036.23339844 14.0087890625 1002 5 c 1
 970 1 936 -3 901 -3 c 0
 833.444335938 -3 820.671875 2.2255859375 765 25 c 0
 726 42 674 66 653 83 c 0
 615 114 588 188 573 247 c 0
 564 281 562 317 562 352 c 0
 562 370 563 387 563 405 c 2
 563 425 l 2
 563 433 562 441 562 449 c 0
 562 495 565 533 565 597 c 2
 566 743 l 1
 578 752 l 1
 606 775 679 802 713 802 c 0
 734 802 733 802 741 796 c 0
 745.221679688 792.833007812 760 765.509765625 760 744 c 0
 760 727 756 700 756 639 c 2
 756 631 l 2
 756 625 757 618 757 612 c 0
 757 557 755 490 753 463 c 1
 753 446 l 2
 753 406 756 319 759 312 c 0
 761 306 765 286 768 267 c 0
 790.802734375 109.455078125 993.162109375 98 996 98 c 0
 1031.08984375 98 1034.45605469 120.139648438 1040 292 c 1
 1040 321 l 2xdd
218 474 m 0
 218 430.602539062 224 450.7578125 224 328 c 0
 224 224 221 84 217 70 c 0
 214 59 207 49 197 41 c 0
 188 34 174 23 166 16 c 0
 143.704101562 -3.818359375 78.904296875 -5 78 -5 c 2
 68 -5 l 1
 43 -4 l 1
 43 143 l 2
 43 244 40 285 40 357 c 2
 40 359 l 2
 40 362.861328125 43.447265625 731.89453125 50 745 c 0
 63.619140625 772.239257812 151.346679688 808 175 808 c 2
 177 808 l 2xec
 185 808 190 804 198 797 c 2
 212 784 l 1
 221 686 l 1
 221 600 218 518 218 474 c 0
275 396 m 2
 275 439.958007812 387.516601562 482.755859375 441 484 c 1
 443 484 l 2
 454.39453125 484 468.77734375 484 491 464 c 0
 505 451 508 446 508 431 c 0
 508 406 498 393 461 366 c 0
 424.567382812 339.9765625 410.548828125 333 356 333 c 0
 342 333 332 335 314 342 c 0
 283 354 275 364 275 394 c 2
 275 396 l 2
EndSplineSet
EndChar

StartChar: uni01A9
Encoding: 425 425 6
Width: 1000
Flags: H
LayerCount: 2
Fore
SplineSet
203.5 173.90625 m 2
 203.5 173.90625 l 2
 209.440429688 174.227539062 211.721679688 173.869140625 213.40625 172.998046875 c 0
 215.125976562 172.108398438 217.364257812 171.380859375 218.380859375 171.380859375 c 0
 219.567382812 171.380859375 220.661132812 170.19140625 221.431640625 168.060546875 c 0
 223.380859375 162.669921875 222.991210938 161.780273438 217.8828125 159.966796875 c 0
 215.270507812 159.0390625 210.8828125 157.423828125 208.1328125 156.376953125 c 0
 202.615234375 154.276367188 189.686523438 151.805664062 179.6328125 150.931640625 c 0
 163.439453125 149.524414062 154.583984375 148.428710938 147.59765625 146.966796875 c 0
 141.625 145.716796875 134.818359375 145.44921875 114.77734375 145.677734375 c 0
 100.87109375 145.836914062 89.30859375 145.665039062 89.08203125 145.298828125 c 0
 88.85546875 144.932617188 89.853515625 143.790039062 91.298828125 142.7578125 c 0
 103.899414062 133.764648438 147.1171875 92.5126953125 152.126953125 84.697265625 c 0
 155.026367188 80.173828125 154.857421875 76.380859375 151.755859375 76.380859375 c 0
 150.797851562 76.380859375 149.141601562 75.7197265625 148.07421875 74.912109375 c 0
 147.006835938 74.1044921875 145.096679688 73.4306640625 143.83203125 73.412109375 c 0
 142.567382812 73.3935546875 140.317382812 72.765625 138.83203125 72.01171875 c 0
 137.346679688 71.2578125 133.8828125 70.3251953125 131.1328125 69.939453125 c 0
 128.3828125 69.5537109375 125.232421875 69.0595703125 124.1328125 68.841796875 c 0
 123.033203125 68.6240234375 120.002929688 69.3212890625 117.400390625 70.390625 c 0
 110.458007812 73.2421875 105.739257812 76.51953125 100.24609375 82.310546875 c 0
 96.90234375 85.8359375 94.703125 87.3681640625 93.275390625 87.169921875 c 0
 91.7080078125 86.9521484375 91.1845703125 87.431640625 91.162109375 89.09765625 c 0
 91.1015625 93.6591796875 62.3564453125 120.282226562 47 130 c 0
 43.626953125 132.133789062 38.28515625 135.90625 35.12890625 138.380859375 c 0
 31.97265625 140.85546875 28.53125 143.37890625 27.48046875 143.98828125 c 0
 25.7021484375 145.01953125 25.8310546875 145.295898438 29.3359375 147.98828125 c 0
 31.4072265625 149.579101562 34 151.33984375 35.09765625 151.900390625 c 0
 36.2587890625 152.493164062 37.1015625 153.942382812 37.11328125 155.365234375 c 0
 37.125 156.885742188 37.98046875 158.237304688 39.375 158.935546875 c 0
 40.6083984375 159.553710938 42.4091796875 160.735351562 43.375 161.5625 c 0
 44.3408203125 162.389648438 49.5302734375 164.500976562 54.904296875 166.25390625 c 2
 64.67578125 169.443359375 l 1
 87.404296875 169.162109375 l 2
 129.168945312 168.645507812 157.861328125 169.185546875 171.6328125 170.740234375 c 0
 187.958007812 172.584960938 197.559570312 173.584960938 203.5 173.90625 c 2
69.322265625 23.791015625 m 1
 69.322265625 23.791015625 l 1
 71.421875 23.8837890625 75.345703125 23.5087890625 80.357421875 22.71484375 c 0
 88.5224609375 21.4208984375 96.41796875 21.05859375 112.955078125 21.216796875 c 0
 126.60546875 21.3466796875 134.55859375 21.0673828125 134.189453125 20.470703125 c 0
 133.029296875 18.59375 135.666992188 18.310546875 140.146484375 19.83203125 c 0
 145.3125 21.5859375 153.7265625 21.8828125 155.244140625 20.365234375 c 0
 155.928710938 19.6806640625 157.327148438 19.724609375 159.55078125 20.5 c 0
 161.658203125 21.234375 166.953125 21.466796875 174.259765625 21.14453125 c 0
 180.538085938 20.8671875 185.901367188 21.0048828125 186.17578125 21.44921875 c 0
 186.450195312 21.8935546875 194.653320312 22.1728515625 204.404296875 22.068359375 c 0
 221.40234375 21.88671875 222.1328125 21.796875 222.1328125 19.87890625 c 0
 222.1328125 18.7783203125 223.2578125 17.1640625 224.6328125 16.291015625 c 0
 228.280273438 13.9736328125 229.752929688 11.8564453125 229.029296875 9.970703125 c 0
 228.279296875 8.0166015625 220.387695312 2.37890625 218.40234375 2.37890625 c 0
 217.649414062 2.37890625 216.604492188 1.9560546875 216.08203125 1.439453125 c 0
 213.77734375 -0.8408203125 198.96484375 -2.736328125 176.6328125 -3.60546875 c 0
 140.741210938 -5.0029296875 69.740234375 -5.609375 64.6328125 -4.5625 c 0
 62.158203125 -4.0556640625 55.4599609375 -3.248046875 49.75 -2.76953125 c 0
 41.798828125 -2.103515625 39.15234375 -1.517578125 38.44921875 -0.26171875 c 0
 37.9443359375 0.6396484375 36.640625 1.37890625 35.55078125 1.37890625 c 0
 31.8759765625 1.37890625 32.1708984375 4.3134765625 36.25 8.33203125 c 0
 40.703125 12.7197265625 56.9169921875 21.240234375 62.419921875 22.0859375 c 0
 64.4619140625 22.3994140625 66.908203125 23.0537109375 67.857421875 23.5390625 c 0
 68.125 23.67578125 68.6220703125 23.7607421875 69.322265625 23.791015625 c 1
EndSplineSet
EndChar

StartChar: uni0427
Encoding: 1063 1063 7
Width: 1000
Flags: H
LayerCount: 2
Fore
SplineSet
38.517578125 181.77734375 m 5
 38.517578125 181.77734375 l 5
 41.357421875 181.728515625 43.498046875 181.044921875 43.498046875 180.013671875 c 4
 43.498046875 179.206054688 44.43359375 176.75390625 45.57421875 174.564453125 c 4
 47.482421875 170.903320312 47.603515625 169.4375 47.0859375 156.283203125 c 4
 46.7763671875 148.41796875 46.2578125 138.247070312 45.93359375 133.6796875 c 4
 45.525390625 127.934570312 45.7099609375 124.931640625 46.53515625 123.9375 c 4
 47.19140625 123.147460938 48.0751953125 119.348632812 48.498046875 115.494140625 c 4
 48.9208984375 111.639648438 49.9697265625 107.4140625 50.828125 106.103515625 c 4
 53.3056640625 102.323242188 67.7880859375 94.47265625 73.54296875 93.791015625 c 4
 76.4267578125 93.44921875 78.498046875 92.7001953125 78.498046875 91.99609375 c 4
 78.498046875 89.6025390625 94.6875 84.494140625 102.330078125 84.474609375 c 4
 108.709960938 84.4599609375 116.46875 83.2431640625 115.9140625 82.345703125 c 4
 115.620117188 81.87109375 116.306640625 81.482421875 117.439453125 81.482421875 c 4
 118.572265625 81.482421875 119.498046875 81.08203125 119.498046875 80.591796875 c 4
 119.498046875 79.1591796875 124.125976562 78.404296875 126.666015625 79.421875 c 4
 128.779296875 80.26953125 128.810546875 80.3701171875 126.998046875 80.49609375 c 4
 120.234375 80.9697265625 118.583984375 82.482421875 124.83203125 82.482421875 c 4
 127.3984375 82.482421875 129.498046875 82.0166015625 129.498046875 81.447265625 c 4
 129.498046875 80.7353515625 130.10546875 80.7373046875 131.44140625 81.451171875 c 4
 132.821289062 82.1904296875 134.146484375 82.1435546875 136.013671875 81.29296875 c 4
 137.803710938 80.4775390625 138.858398438 80.427734375 139.3203125 81.134765625 c 4
 140.12109375 82.359375 147.498046875 81.6728515625 147.498046875 80.373046875 c 4
 147.498046875 79.8837890625 146.749023438 79.482421875 145.83203125 79.482421875 c 4
 144.915039062 79.482421875 144.444335938 79.203125 144.78515625 78.861328125 c 4
 145.953125 77.6943359375 150.702148438 79.5087890625 150.162109375 80.916015625 c 4
 149.774414062 81.9267578125 151.318359375 82.4443359375 156.3046875 82.978515625 c 4
 159.967773438 83.37109375 165.83984375 84.5791015625 169.353515625 85.6640625 c 4
 177.071289062 88.0478515625 179.313476562 87.5908203125 182.236328125 83.03515625 c 4
 185.359375 78.1669921875 186.440429688 72.529296875 185.34765625 66.787109375 c 4
 184.844726562 64.14453125 184.49609375 60.857421875 184.572265625 59.482421875 c 4
 184.6484375 58.107421875 184.606445312 56.6455078125 184.48046875 56.232421875 c 4
 184.353515625 55.8203125 184.165039062 54.2451171875 184.0625 52.732421875 c 4
 183.959960938 51.2197265625 183.513671875 46.6611328125 183.072265625 42.6015625 c 4
 182.516601562 37.49609375 182.595703125 35.4228515625 183.32421875 35.873046875 c 4
 185.05859375 36.9443359375 185.331054688 13.529296875 183.6171875 10.70703125 c 4
 182.40625 8.712890625 182.455078125 8.1875 184.021484375 6.45703125 c 4
 185.783203125 4.5087890625 185.717773438 4.482421875 179.34375 4.482421875 c 4
 174.815429688 4.482421875 170.96875 3.7333984375 166.5 1.982421875 c 4
 160.418945312 -0.400390625 157.131835938 -0.7216796875 148.298828125 0.20703125 c 6
 148.298828125 0.208984375 l 6
 145.733398438 0.4794921875 144.409179688 1.1904296875 143.984375 2.529296875 c 4
 142.995117188 5.646484375 142.806640625 28.9482421875 143.662109375 42.4375 c 4
 144.262695312 51.904296875 144.159179688 55.0791015625 143.2265625 55.662109375 c 4
 142.551757812 56.083984375 138.849609375 56.2373046875 135 56.001953125 c 4
 113.28125 54.6748046875 84.22265625 55.611328125 73 58 c 4
 58.134765625 61.1640625 22.611328125 77.1982421875 17.13671875 83.21484375 c 4
 15.4111328125 85.111328125 12.5048828125 88.1962890625 10.677734375 90.072265625 c 4
 8.8515625 91.9482421875 7.8388671875 93.482421875 8.427734375 93.482421875 c 4
 9.9873046875 93.482421875 9.7275390625 96.533203125 7.875 99.982421875 c 4
 6.5810546875 102.392578125 6.2373046875 106.522460938 6.130859375 120.982421875 c 4
 6.0576171875 130.8828125 6.158203125 141.682617188 6.353515625 144.982421875 c 4
 6.548828125 148.282226562 6.3759765625 153.970703125 5.96875 157.623046875 c 4
 5.275390625 163.848632812 5.36328125 164.306640625 7.365234375 164.94140625 c 4
 8.5390625 165.314453125 10.6796875 167.163085938 12.119140625 169.05078125 c 4
 13.55859375 170.938476562 15.2685546875 172.482421875 15.919921875 172.482421875 c 4
 17.58203125 172.482421875 25.498046875 178.435546875 25.498046875 179.685546875 c 4
 25.498046875 180.251953125 24.5986328125 180.481445312 23.498046875 180.193359375 c 4
 22.3974609375 179.905273438 21.732421875 180.051757812 22.021484375 180.51953125 c 4
 22.310546875 180.987304688 25.1240234375 181.37890625 28.2734375 181.390625 c 4
 31.4228515625 181.40234375 34.6728515625 181.499023438 35.498046875 181.60546875 c 4
 36.546875 181.739257812 37.5712890625 181.79296875 38.517578125 181.77734375 c 5
173.947265625 173.689453125 m 5
 173.947265625 173.689453125 l 5
 175.6640625 173.671875 177.603515625 173.526367188 179.986328125 173.29296875 c 4
 183.213867188 172.9765625 184.41015625 172.2421875 186.26953125 169.44140625 c 4
 187.532226562 167.5390625 189.301757812 165.104492188 190.19921875 164.029296875 c 4
 194.775390625 158.547851562 196.05078125 150.157226562 192.75 147.255859375 c 4
 191.000976562 145.71875 180.44140625 140.482421875 179.08984375 140.482421875 c 4
 178.696289062 140.482421875 176.041015625 139.409179688 173.1875 138.095703125 c 4
 167.348632812 135.407226562 160.297851562 134.594726562 150 135.421875 c 4
 143.901367188 135.911132812 142.985351562 136.240234375 142.896484375 137.982421875 c 4
 142.840820312 139.08203125 142.702148438 140.20703125 142.587890625 140.482421875 c 4
 142.473632812 140.7578125 142.1640625 143.173828125 141.900390625 145.8515625 c 4
 141.63671875 148.529296875 141.384765625 151.00390625 141.341796875 151.3515625 c 4
 140.567382812 157.541015625 146.1953125 163.41796875 158.47265625 169.23828125 c 4
 165.640625 172.635742188 168.795898438 173.7421875 173.947265625 173.689453125 c 5
EndSplineSet
EndChar

StartChar: uni021C
Encoding: 540 540 8
Width: 876
Flags: HW
LayerCount: 2
Fore
SplineSet
262 -5 m 4
 243 -5 224 -6 205 -6 c 4
 152 -6 152 -6 56 0 c 4
 46 1 40 4 40 10 c 4
 40 16 46 25 57 37 c 5
 106 77 l 6
 115 84 148 105 162 105 c 4
 165 105 197 91 417 91 c 6
 473 91 l 6
 636 91 642 100 655 122 c 4
 660 130 671 151 671 168 c 4
 671 200 644 232 628 251 c 4
 603 280 596 287 560 304 c 4
 538 315 530 320 511 324 c 4
 485 329 459 330 431 333 c 4
 397 336 358 336 357 356 c 5
 357 356 l 5
 357 367 390 393 424 412 c 4
 475 440 466 432 501 436 c 4
 583 445 595 448 614 461 c 4
 639 478 654 513 654 554 c 6
 654 556 l 6
 654 587 648 597 605 642 c 4
 575 673 539 689 501 702 c 4
 484 708 465 707 447 708 c 4
 442 708 436 709 432 709 c 4
 410 709 317 701 276 693 c 4
 185 673 157 652 102 652 c 4
 89 652 72 655 72 668 c 4
 72 685 106 708 164 736 c 4
 229 767 268 774 322 787 c 4
 332 789 431 806 476 806 c 6
 497 806 l 6
 605 806 689 776 769 702 c 4
 792 681 822 653 822 597 c 6
 822 587 l 5
 818 540 766 478 714 439 c 4
 698 427 678 406 678 400 c 4
 678 396 683 392 690 390 c 4
 733 375 796 318 815 277 c 4
 821 263 830 247 833 240 c 4
 836 235 836 232 836 227 c 4
 836 173 736 55 663 29 c 4
 582 -3 445 -4 424 -4 c 6
 414 -4 l 6
 262 -5 l 4
EndSplineSet
EndChar

StartChar: uniA7B0
Encoding: 42928 42928 9
Width: 859
Flags: HW
HStem: 574 216<154.32 239.104>
VStem: 618 192<55.3354 317.985> 627 188<496.639 738.619>
LayerCount: 2
Fore
SplineSet
612 -7 m 0xc0
 614 -7 618 105 618 161 c 2
 618 197 l 2
 618 218 619 250 619 275 c 0
 619 312 619 321 616 321 c 0
 614 321 499 227 463 202 c 0
 440 186 415 172 392 156 c 2
 307 95 l 1
 226 34 168 -3 111 -4 c 1
 92 -4 l 2
 57 -4 40 -1 40 5 c 0
 40 13 96 77 127 94 c 0
 162 114 142 106 221 159 c 0
 321 226 395 290 495 371 c 0
 555 420 566 430 607 472 c 0
 627 493 625 505 627 611 c 0
 628 668 628 726 641 739 c 0
 657 755 686 766 696 770 c 0
 742 785 781 808 804 808 c 0
 811 808 816 806 819 803 c 1
 818 749 l 1
 818 677 814 542 814 540 c 0
 814 535 813 528 813 523 c 0
 813 483 815 442 815 402 c 2
 815 398 l 2xa0
 815 341 815 308 810 136 c 1
 810 92 l 2
 810 73 810 56 806 49 c 0
 802 42 792 42 785 38 c 0
 763 27 680 -13 622 -13 c 0
 612 -13 610 -8 610 -8 c 2
 610 -7 611 -7 612 -7 c 0xc0
228 797 m 0
 279 797 331 746 333 702 c 1
 333 700 l 2
 333 650 220 592 202 587 c 0
 187 583 170 581 154 581 c 0
 114 581 98 596 82 612 c 0
 67 627 45 642 44 663 c 1
 44 664 l 2
 44 712 147 781 181 790 c 0
 195 794 213 797 228 797 c 0
EndSplineSet
EndChar

StartChar: Eng
Encoding: 330 330 10
Width: 831
Flags: W
HStem: -15 91<417.5 570.778> 611 192<596.611 694.52>
VStem: 43 165<49.0015 376.738> 45 186<199.852 547> 599 171<91.5 186.5>
LayerCount: 2
Fore
SplineSet
131 776 m 0xd8
 163.612304688 793.264648438 180.111328125 802 204 802 c 0
 211 802 244 782 259 770 c 0
 289 745 289 745 433 585 c 0
 460 554 485 522 512 492 c 2
 557 444 l 1
 679 318 679 318 724 260 c 0
 755 221 770 202 770 171 c 0
 770 156 766 122 732 92 c 0
 693 57 693 57 631 30 c 0
 604 19 577 7 549 1 c 0
 512 -7 465 -15 429 -15 c 0
 406 -15 372 -10 344 12 c 0
 326 27 305 74 305 92 c 2
 305 95 l 1
 311 120 405 189 436 189 c 0
 465 189 455 135 475 110 c 0
 489 92 527 76 554 76 c 0
 559 76 599 77 599 106 c 0
 599 153 547 209 411 347 c 0
 381 377 357 404 357 405 c 0
 357 406 333 436 294 482 c 0
 293 483 235 547 231 547 c 1
 231 546 l 1xd8
 216 472 225 160 208 53 c 0
 208 51 205 49 201 49 c 0
 156 27 93 -4 59 -4 c 2
 57 -4 l 1
 40 -2 l 1
 41 32 l 1
 43 50 43 57 43 69 c 0xe8
 45 143 46 218 46 292 c 2
 46 306 l 2
 46 359 45 405 45 456 c 2
 45 495 l 2
 45 540 49 598 49 636 c 2
 49 650 l 2
 49 658 48 666 48 673 c 0
 48 709 52 729 59 729 c 0
 66 729 73 745 131 776 c 0xd8
524 691 m 0
 524 758.70703125 635.997070312 803 641 803 c 0
 659 809 664 810 696 812 c 0
 697 811 699 810 701 810 c 0
 703 810 706 811 709 811 c 2
 710 811 l 1
 735 808 740 810 756 797 c 0
 764 791 787 761 789 753 c 0
 791 745 791 740 791 735 c 0
 791 732 790 699 743 658 c 0
 742 657 673 611 632 611 c 0
 631 611 557 618 532 666 c 0
 526 678 524 686 524 691 c 0
EndSplineSet
EndChar

StartChar: uniA74E
Encoding: 42830 42830 11
Width: 1000
Flags: H
LayerCount: 2
Fore
SplineSet
91.978515625 176.94140625 m 6
 91.978515625 176.94140625 l 6
 101.337890625 176.982421875 105.36328125 176.635742188 106.349609375 175.701171875 c 4
 107.103515625 174.986328125 109.015625 174.142578125 110.599609375 173.826171875 c 4
 112.18359375 173.508789062 113.478515625 172.727539062 113.478515625 172.08984375 c 4
 113.478515625 171.452148438 114.774414062 170.165039062 116.357421875 169.23046875 c 4
 120.83984375 166.58203125 129.778320312 156.396484375 135.072265625 147.90234375 c 4
 139.65234375 140.552734375 147.478515625 122.891601562 147.478515625 119.904296875 c 4
 147.478515625 115.706054688 153.982421875 121.286132812 158.5390625 129.39453125 c 4
 159.80859375 131.65234375 161.111328125 133.5 161.43359375 133.5 c 4
 161.756835938 133.5 163.088867188 135.412109375 164.39453125 137.75 c 4
 166.915039062 142.260742188 182.57421875 156.190429688 189.630859375 160.19921875 c 4
 195.352539062 163.448242188 209.827148438 168.467773438 216.748046875 169.603515625 c 4
 223.256835938 170.670898438 224.451171875 170.259765625 231.31640625 164.5859375 c 4
 235.224609375 161.35546875 242.478515625 151.912109375 242.478515625 150.0546875 c 4
 242.478515625 149.6484375 243.37890625 148.171875 244.478515625 146.7734375 c 4
 245.578125 145.375 246.478515625 143.361328125 246.478515625 142.30078125 c 4
 246.478515625 141.239257812 247.317382812 138.26171875 248.341796875 135.685546875 c 4
 251.255859375 128.35546875 253.30078125 118.803710938 254.0546875 109 c 4
 254.435546875 104.049804688 255.404296875 98.7021484375 256.20703125 97.1171875 c 4
 257.129882812 95.294921875 257.447265625 92.9033203125 257.0703125 90.6171875 c 4
 256.7421875 88.626953125 255.810546875 79.349609375 255 70 c 4
 253.293945312 50.32421875 253.186523438 49.7099609375 249.458984375 38.703125 c 4
 244.147460938 23.0185546875 232.4296875 11.9541015625 212.083984375 3.4140625 c 4
 207.901367188 1.658203125 204.478515625 -0.140625 204.478515625 -0.583984375 c 4
 204.478515625 -1.0283203125 206.390625 -1.56640625 208.728515625 -1.78125 c 4
 211.06640625 -1.9970703125 209.603515625 -2.1748046875 205.478515625 -2.17578125 c 4
 201.353515625 -2.177734375 186.956054688 -2.5126953125 173.484375 -2.91796875 c 4
 160.012695312 -3.32421875 149.223632812 -3.4228515625 149.5078125 -3.138671875 c 4
 149.791992188 -2.8544921875 152.6015625 -2.5166015625 155.751953125 -2.388671875 c 4
 161.231445312 -2.1669921875 161.408203125 -2.078125 159.82421875 -0.328125 c 4
 158.9140625 0.677734375 157.424804688 1.5 156.515625 1.5 c 4
 155.606445312 1.5 151.124023438 2.86328125 146.5546875 4.53125 c 4
 137.624023438 7.7900390625 130.010742188 12.4296875 128.962890625 15.251953125 c 4
 128.60546875 16.212890625 126.62890625 18.4443359375 124.568359375 20.2109375 c 6
 120.822265625 23.421875 l 5
 115.400390625 19.43359375 l 6
 112.418945312 17.240234375 108.815429688 14.3330078125 107.39453125 12.97265625 c 4
 105.973632812 11.6123046875 104.3984375 10.4931640625 103.89453125 10.482421875 c 4
 103.390625 10.470703125 101.076171875 9.173828125 98.75 7.59765625 c 4
 96.423828125 6.0205078125 92.841796875 4.416015625 90.791015625 4.03125 c 4
 88.740234375 3.646484375 84.1201171875 1.9833984375 80.521484375 0.3359375 c 4
 73.2744140625 -2.9833984375 63.9501953125 -4.3173828125 53.7109375 -3.5 c 4
 50.263671875 -3.2255859375 47.439453125 -2.55078125 47.431640625 -2 c 4
 47.423828125 -1.4501953125 45.2880859375 -0.27734375 42.685546875 0.607421875 c 4
 37.9130859375 2.2294921875 32.166015625 5.1083984375 27.375 8.27734375 c 4
 25.943359375 9.2236328125 22.9091796875 11.125 20.6328125 12.5 c 4
 18.3564453125 13.875 16.490234375 15.4150390625 16.486328125 15.921875 c 4
 16.482421875 16.4287109375 15.302734375 19.78515625 13.86328125 23.3828125 c 4
 11.3701171875 29.615234375 11.25390625 30.7216796875 11.408203125 46.9609375 c 4
 11.5400390625 60.8583984375 12.3876953125 74.736328125 13.626953125 83.2734375 c 4
 13.728515625 83.97265625 14.861328125 84.80859375 16.14453125 85.130859375 c 4
 18.7177734375 85.7763671875 19.376953125 88.5 16.958984375 88.5 c 4
 15.6611328125 88.5 15.5283203125 89.9248046875 16.048828125 98.25 c 4
 16.705078125 108.741210938 18.1005859375 116.58984375 21.951171875 131.416015625 c 4
 24.568359375 141.493164062 24.8505859375 141.903320312 37.337890625 153.8671875 c 4
 47.0703125 163.190429688 55.7861328125 168.334960938 71.931640625 174.287109375 c 4
 78.1298828125 176.571289062 80.54296875 176.889648438 91.978515625 176.94140625 c 6
69.580078125 155.171875 m 6
 69.580078125 155.171875 l 6
 65.9580078125 155.350585938 63.0703125 153.66796875 60.478515625 150.08984375 c 4
 57.701171875 146.256835938 54.955078125 133.5625 52.85546875 114.86328125 c 4
 52.5859375 112.466796875 50.7060546875 107.934570312 48.388671875 104.091796875 c 4
 44.330078125 97.36328125 44.12109375 95.5 47.4296875 95.5 c 4
 49.4990234375 95.5 50.478515625 93.6103515625 50.478515625 89.6171875 c 4
 50.478515625 88.1220703125 50.9794921875 86.3984375 51.591796875 85.787109375 c 4
 52.22265625 85.1552734375 52.3515625 84.103515625 51.888671875 83.35546875 c 4
 50.916015625 81.78125 50.7138671875 80.4365234375 49.88671875 70 c 4
 49.1591796875 60.8251953125 49.2197265625 53.564453125 50.091796875 45 c 4
 50.64453125 39.568359375 51.119140625 38.5986328125 55.083984375 34.7734375 c 4
 62.4619140625 27.6552734375 74.5166015625 22.6494140625 84.51953125 22.552734375 c 4
 89.7646484375 22.5009765625 90.279296875 22.7265625 94.115234375 26.75 c 4
 96.34375 29.0869140625 99.234375 32.57421875 100.537109375 34.5 c 4
 101.83984375 36.4248046875 103.399414062 38.44921875 104.00390625 39 c 4
 106.150390625 40.953125 112.395507812 51.0634765625 114.017578125 55.2109375 c 4
 115.532226562 59.08203125 115.538085938 59.9306640625 114.083984375 65.7265625 c 4
 112.362304688 72.5908203125 112.583007812 75.8525390625 114.947265625 78.46484375 c 4
 116.723632812 80.427734375 116.947265625 83.0908203125 115.4140625 84.0390625 c 4
 114.828125 84.400390625 114.48046875 85.947265625 114.640625 87.474609375 c 4
 114.80078125 89.0009765625 114.409179688 90.8779296875 113.771484375 91.646484375 c 4
 113.133789062 92.4150390625 111.719726562 96.18359375 110.62890625 100.021484375 c 4
 105.87109375 116.76171875 101.689453125 126.049804688 94.244140625 136.412109375 c 4
 87.5009765625 145.796875 85.6552734375 147.6796875 79.5703125 151.384765625 c 4
 75.6591796875 153.764648438 72.3974609375 155.032226562 69.580078125 155.171875 c 6
204.470703125 131.33984375 m 5
 204.470703125 131.338867188 l 5
 201.67578125 131.259765625 197.189453125 129.430664062 194.80078125 126.905273438 c 4
 192.651367188 124.6328125 190.340820312 123.33984375 187.66015625 122.911132812 c 4
 183.564453125 122.256835938 182.970703125 121.567382812 180.416015625 114.499023438 c 4
 179.720703125 112.57421875 177.703125 108.935546875 175.93359375 106.413085938 c 4
 174.165039062 103.890625 172.379882812 100.741210938 171.966796875 99.4130859375 c 4
 171.5546875 98.0859375 170.358398438 95.7822265625 169.310546875 94.2939453125 c 4
 168.262695312 92.8056640625 166.91796875 90.189453125 166.322265625 88.4814453125 c 4
 165.727539062 86.7734375 164.731445312 85.5849609375 164.109375 85.8408203125 c 4
 159.700195312 87.65625 159.478515625 87.669921875 159.478515625 86.1064453125 c 4
 159.478515625 85.22265625 160.153320312 84.4990234375 160.978515625 84.4990234375 c 4
 162.956054688 84.4990234375 162.903320312 81.09765625 160.900390625 79.4345703125 c 4
 160.032226562 78.71484375 158.209960938 76.0712890625 156.849609375 73.5615234375 c 4
 155.490234375 71.052734375 153.283203125 67.19921875 151.9453125 64.9990234375 c 4
 150.607421875 62.7998046875 149.50390625 60.2607421875 149.49609375 59.3564453125 c 4
 149.48828125 58.453125 148.803710938 57.455078125 147.978515625 57.1376953125 c 4
 146.01953125 56.38671875 146.055664062 53.095703125 148.041015625 51.4482421875 c 4
 148.900390625 50.7353515625 151.254882812 47.642578125 153.2734375 44.5751953125 c 4
 162.016601562 31.291015625 168.173828125 24.9755859375 173.39453125 23.9423828125 c 4
 178.145507812 23.0029296875 193.967773438 18.1279296875 194.9296875 17.3076171875 c 4
 196.220703125 16.2080078125 205.625976562 16.310546875 207.419921875 17.443359375 c 6
 207.421875 17.443359375 l 6
 211.270507812 19.8828125 214.416015625 41.5390625 214.91015625 69 c 4
 215.328125 92.2470703125 213.658203125 109.6015625 209.91796875 120.880859375 c 4
 208.4375 125.345703125 207.068359375 129.569335938 206.876953125 130.265625 c 4
 206.66015625 131.05078125 205.741210938 131.376953125 204.470703125 131.33984375 c 5
EndSplineSet
EndChar

StartChar: uni0222
Encoding: 546 546 12
Width: 1000
Flags: H
LayerCount: 2
Fore
SplineSet
61.43359375 179.521484375 m 5
 61.43359375 179.521484375 l 5
 65.2060546875 179.708984375 68 179.142578125 68 177.728515625 c 4
 68 176.891601562 69.0263671875 175.737304688 70.28125 175.166015625 c 4
 72.41796875 174.192382812 72.5810546875 173.450195312 72.8671875 163.4375 c 4
 73.03515625 157.557617188 73.3486328125 150.5 73.564453125 147.75 c 4
 74.2783203125 138.633789062 74.9541015625 127.786132812 74.9765625 125.033203125 c 4
 75.0146484375 120.973632812 80.3759765625 115.587890625 88.416015625 111.5390625 c 4
 101.91015625 104.7421875 109.038085938 102.927734375 128.5 101.337890625 c 4
 134 100.887695312 139.4609375 100.194335938 140.63671875 99.796875 c 4
 141.876953125 99.376953125 143.057617188 99.5302734375 143.447265625 100.161132812 c 4
 143.81640625 100.759765625 146.228515625 101.255859375 148.80859375 101.266601562 c 4
 153.045898438 101.282226562 153.818359375 101.66796875 156.794921875 105.252929688 c 4
 160.443359375 109.647460938 163 115.0390625 163 118.338867188 c 4
 163 120.028320312 163.2890625 120.25390625 164.341796875 119.379882812 c 4
 165.955078125 118.041015625 167 118.8828125 167 121.522460938 c 4
 167 122.888671875 166.526367188 123.280273438 165.40234375 122.848632812 c 4
 164.024414062 122.3203125 163.881835938 122.958984375 164.361328125 127.493164062 c 4
 164.666992188 130.383789062 165.411132812 139.448242188 166.015625 147.635742188 c 4
 167.1953125 163.629882812 168.408203125 167.155273438 172.75 167.215820312 c 4
 174.317382812 167.239257812 175 167.8515625 175 169.235351562 c 4
 175 170.528320312 176.134765625 171.701171875 178.25 172.594726562 c 4
 180.037109375 173.350585938 183.622070312 174.975585938 186.216796875 176.204101562 c 4
 190.578125 178.270507812 193.9140625 178.665039062 201.37890625 178.002929688 c 4
 203.790039062 177.790039062 204.646484375 176.89453125 206.6640625 172.483398438 c 4
 208.955078125 167.474609375 209.0390625 166.590820312 208.38671875 154.233398438 c 4
 208.009765625 147.091796875 207.319335938 141.249023438 206.8515625 141.249023438 c 4
 206.383789062 141.249023438 206 141.725585938 206 142.307617188 c 4
 206 142.890625 205.521484375 143.0703125 204.935546875 142.708007812 c 4
 204.235351562 142.275390625 204.44140625 141.416992188 205.5390625 140.204101562 c 4
 206.899414062 138.701171875 207.083984375 137.19140625 206.5390625 132.053710938 c 4
 204.901367188 116.631835938 204.3203125 114.916992188 198.642578125 108.766601562 c 4
 193.852539062 103.579101562 193.107421875 103.120117188 191.162109375 104.161132812 c 4
 189.364257812 105.123046875 189 105.048828125 189 103.715820312 c 4
 189 102.568359375 188.431640625 102.294921875 187 102.749023438 c 4
 185.899414062 103.098632812 185 102.928710938 185 102.375 c 4
 185 100.64453125 186.87109375 100.110351562 188.978515625 101.23828125 c 4
 190.08984375 101.833007812 191 101.94140625 191 101.48046875 c 4
 191 100.276367188 184.8359375 94.6552734375 182.6875 93.900390625 c 4
 180.243164062 93.041015625 181.157226562 91.8828125 186.23828125 89.396484375 c 4
 191.271484375 86.93359375 194.608398438 84.0458984375 197.966796875 79.25 c 4
 199.314453125 77.32421875 201.163085938 75.2041015625 202.072265625 74.5390625 c 4
 202.981445312 73.873046875 204.310546875 71.84765625 205.02734375 70.0390625 c 4
 205.743164062 68.2294921875 206.887695312 66.07421875 207.5703125 65.25 c 4
 209.951171875 62.3720703125 211.487304688 48.970703125 210.21875 42.1484375 c 4
 208.797851562 34.509765625 205.061523438 25.25 203.400390625 25.25 c 4
 202.72265625 25.25 202.017578125 24.912109375 201.833984375 24.5 c 4
 201.157226562 22.9765625 188.555664062 13.0615234375 184.97265625 11.234375 c 4
 182.935546875 10.1953125 179.071289062 8.8310546875 176.384765625 8.203125 c 4
 170.365234375 6.794921875 162.174804688 4.39453125 159.5 3.25390625 c 4
 155.721679688 1.6416015625 151.479492188 1.0419921875 141 0.64453125 c 4
 135.224609375 0.4248046875 127.703125 -0.0126953125 124.28515625 -0.328125 c 6
 124.28515625 -0.328125 118.5390625 -0.5888671875 100.5 -0.330078125 c 4
 92.314453125 -0.212890625 85.3173828125 0.369140625 83.65234375 1.072265625 c 4
 82.0859375 1.732421875 75.5478515625 3.33984375 69.12109375 4.64453125 c 4
 61.7236328125 6.14453125 54.6962890625 8.3212890625 49.96875 10.57421875 c 4
 41.2158203125 14.7451171875 39.01171875 16.267578125 33.361328125 22.052734375 c 4
 28.62109375 26.9052734375 27.8447265625 29.7001953125 27.791015625 42.08984375 c 4
 27.7490234375 51.5712890625 29.3359375 56.423828125 33.2265625 58.72265625 c 4
 35.0546875 59.8017578125 35.9306640625 60.9892578125 35.578125 61.908203125 c 4
 35.0361328125 63.3212890625 46.8818359375 76.0537109375 51.548828125 79.07421875 c 4
 52.67578125 79.802734375 55.7490234375 81.740234375 58.37890625 83.376953125 c 4
 64.2314453125 87.01953125 63.845703125 87.73828125 53.27734375 92.890625 c 4
 48.8642578125 95.0419921875 43.658203125 98.6337890625 40.58984375 101.64453125 c 4
 32.1171875 109.956054688 30.759765625 115.974609375 29.486328125 150.93359375 c 4
 29.0458984375 163.020507812 29.158203125 164.1640625 30.818359375 164.69140625 c 4
 31.814453125 165.006835938 33.9501953125 167.064453125 35.564453125 169.263671875 c 4
 37.1787109375 171.461914062 39.625 173.545898438 41 173.890625 c 4
 42.375 174.235351562 45.974609375 175.536132812 49 176.78125 c 4
 52.91015625 178.390625 57.6611328125 179.333007812 61.43359375 179.521484375 c 5
150.8671875 81.474609375 m 5
 144.8671875 79.79296875 l 6
 137.97265625 77.8583984375 118.17578125 76.3125 113 77.3046875 c 4
 111.075195312 77.673828125 104.235351562 77.9228515625 97.798828125 77.861328125 c 6
 86.095703125 77.748046875 l 5
 81.98828125 73.748046875 l 6
 79.7294921875 71.5478515625 76.333984375 66.837890625 74.44140625 63.28125 c 4
 71.365234375 57.5 71 55.9853515625 71 49 c 4
 71 37.63671875 72.2060546875 35.4921875 81.099609375 31.05859375 c 4
 92.013671875 25.6171875 100.346679688 23.9228515625 124.390625 22.259765625 c 4
 132.03125 21.73046875 138.552734375 21.029296875 138.884765625 20.697265625 c 4
 139.216796875 20.365234375 140.840820312 20.3984375 142.494140625 20.771484375 c 4
 144.147460938 21.14453125 148.940429688 21.662109375 153.14453125 21.921875 c 4
 162.594726562 22.5048828125 164.048828125 23.8017578125 166.92578125 34.205078125 c 4
 168.059570312 38.3056640625 169.680664062 42.0498046875 170.529296875 42.525390625 c 4
 171.5625 43.103515625 172.000976562 44.6201171875 171.853515625 47.1171875 c 4
 171.563476562 52.0341796875 172.529296875 53.5712890625 175.060546875 52.216796875 c 4
 176.684570312 51.34765625 177 51.5087890625 177 53.212890625 c 4
 177 54.53515625 176.34375 55.25 175.126953125 55.25 c 4
 173.609375 55.25 173.1640625 56.2001953125 172.7734375 60.26171875 c 4
 172.350585938 64.6669921875 171.71875 65.8154296875 167.56640625 69.73828125 c 4
 164.967773438 72.1923828125 160.146484375 75.8369140625 156.853515625 77.837890625 c 6
 150.8671875 81.474609375 l 5
EndSplineSet
EndChar

StartChar: Phi
Encoding: 934 934 13
Width: 885
Flags: W
HStem: 172 95<223.391 660> 534 84<235.453 491.946 492 651.068> 659 128<391.881 457.364>
VStem: 40 156<295.848 460.494> 683 162<303.106 501.367>
LayerCount: 2
Fore
SplineSet
567 756 m 2
 567 728 484 662 435 659 c 1
 431 659 l 2
 430 659 386 665 376 672 c 0
 365 679 353 690 353 703 c 0
 353 738 390 764 417 787 c 0
 418 787 449 813 485 813 c 0
 523 813 565 784 567 757 c 1
 567 756 l 2
381 616 m 4
 418 618 492 618 492 618 c 5
 644 618 l 6
 692 618 790 609 828 542 c 4
 841 517 845 458 845 365 c 4
 845 344 844 326 842 321 c 4
 833 296 805 254 793 248 c 4
 734 197 732 213 714 200 c 4
 701 191 641 182 604 177 c 4
 594 176 526 172 524 172 c 6
 510 172 l 6
 471 172 432 175 393 175 c 6
 388 175 l 6
 363 175 350 173 322 173 c 4
 320 173 183 177 156 186 c 4
 108 200 77 209 53 240 c 4
 45 250 40 285 40 325 c 4
 40 372 46 425 56 450 c 4
 65 474 125 545 167 566 c 4
 277 622 300 612 381 616 c 4
660 271 m 5
 677 291 683 298 683 382 c 4
 683 408 683 477 656 509 c 4
 643 523 596 532 491 534 c 5
 466 534 l 6
 464 534 286 533 239 515 c 4
 216 506 196 498 196 416 c 4
 196 373 202 322 217 297 c 4
 227 280 243 277 261 272 c 4
 272 269 320 264 334 264 c 4
 356 264 393 266 423 267 c 5
 499 267 l 6
 515 267 537 266 559 266 c 4
 577 266 595 266 610 267 c 6
 660 271 l 5
344 26 m 1
 346 52 424 134 486 134 c 0
 488 134 491 133 493 133 c 0
 553 126 554 90 554 89 c 0
 554 80 551 71 547 63 c 0
 540 49 487 11 486 11 c 2
 468 -1 l 2
 458 -7 449 -15 438 -18 c 0
 431 -20 423 -20 416 -20 c 0
 415 -20 370 -19 360 -10 c 0
 351 -2 344 12 344 24 c 2
 344 26 l 1
EndSplineSet
EndChar

StartChar: uni0418
Encoding: 1048 1048 14
Width: 883
Flags: HW
HStem: -18 21G<48.5 82> 618 191<141.72 236.122>
VStem: 652 185<39.0234 550.996>
LayerCount: 2
Fore
SplineSet
843 72 m 1
 840 53 771 -5 709 -10 c 0
 704 -10 700 -11 696 -11 c 0
 676 -11 670 -5 663 3 c 0
 655 12 657 24 655 95 c 0
 654 138 653 170 653 208 c 0
 653 250 652 291 652 333 c 0
 652 370 654 422 655 443 c 0
 656 458 655 479 656 506 c 0
 656 519 657 529 657 536 c 0
 657 546 657 551 654 551 c 0
 650 551 643 542 630 527 c 0
 559 446 483 388 241 95 c 0
 219 69 192 23 177 15 c 0
 176 14 110 -18 54 -18 c 0
 43 -18 40 -16 40 -16 c 1
 40 -14 l 2
 40 6 82 63 106 98 c 0
 164 180 236 252 302 328 c 0
 367 403 436 474 501 549 c 0
 537 591 572 634 607 676 c 0
 631 705 661 748 679 764 c 0
 702 784 782 815 784 815 c 0
 799 815 830 799 830 789 c 4
 832 778 835 746 838 705 c 0
 839 693 839 680 839 666 c 0
 839 636 838 602 838 576 c 2
 838 562 l 2
 838 547 839 532 839 517 c 0
 839 471 837 425 837 379 c 0
 837 317 838 255 839 193 c 0
 839 168 839 168 843 72 c 1
326 717 m 1
 323 683 222 618 162 618 c 0
 154 618 145 619 136 619 c 0
 119 619 101 625 93 632 c 1
 61 640 52 667 52 692 c 0
 52 699 51 705 51 710 c 0
 51 718 54 726 69 745 c 0
 81 760 101 768 131 782 c 0
 180 807 185 809 232 809 c 0
 272 808 279 803 300 779 c 0
 309 769 317 758 317 757 c 0
 318 752 326 733 326 719 c 2
 326 717 l 1
EndSplineSet
EndChar

StartChar: AE
Encoding: 198 198 27
Width: 1212
Flags: W
HStem: -8 100<736.345 1053.41> 695 93<847.191 1129.62> 698 103<683 1084.25>
VStem: 310 148<34 112> 534 163<126.994 591.844>
LayerCount: 2
Fore
SplineSet
49 15 m 4xb8
 48 15 40 15 40 21 c 4
 40 23 40 25 41 27 c 4
 47 46 65 60 77 76 c 4
 123 141 173 206 211 273 c 4
 260 361 290 397 314 443 c 4
 333 479 373 543 373 544 c 4
 373 545 432 643 442 658 c 4
 461 685 487 717 504 735 c 4
 533 766 553 771 661 803 c 4
 665 804 670 804 675 804 c 4
 687 804 702 802 721 802 c 4
 722 802 722 802 723 802 c 4
 746 802 767 801 786 801 c 4
 795 801 803 801 812 801 c 4
 813 801 814 801 815 801 c 4xb8
 918 799 865 797 1106 788 c 6
 1172 785 l 5
 1172 785 1159 746 1137 724 c 4
 1119 705 1108 695 1030 695 c 4xd8
 985 695 925 698 872 698 c 4
 870 698 686 696 683 693 c 4
 683 693 683 692 683 690 c 4
 683 687 692 577 697 408 c 4
 700 306 711 145 718 126 c 4
 722 115 726 111 734 110 c 4
 740 109 757 107 771 104 c 4
 796 99 947 92 1003 92 c 4
 1024 92 1133 103 1134 103 c 4
 1146 103 1149 75 1149 75 c 4
 1149 59 1130 66 1115 41 c 4
 1106 25 1106 25 1068 17 c 4
 1055 14 1040 10 1036 8 c 4
 1024 2 875 -8 845 -8 c 4
 838 -8 830 -7 823 -7 c 4
 808 -7 814 -11 791 -11 c 4
 771 -11 757 -7 721 -5 c 4
 580 2 605 22 574 22 c 4
 556 22 553 29 547 86 c 4
 537 180 534 214 534 284 c 4
 534 391 525 569 520 582 c 6
 516 592 l 5
 511 579 l 6
 500 549 467 507 462 490 c 4
 462 490 326 280 326 273 c 4
 326 269 313 249 284 206 c 4
 249 154 191 103 136 61 c 4
 120 49 103 40 85 32 c 4
 74 27 60 15 49 15 c 4xb8
1081 470 m 4
 1097 470 1114 445 1114 413 c 4
 1114 386 1113 385 1077 355 c 4
 1050 332 971 310 949 310 c 4
 941 310 925 313 925 345 c 4
 925 398 959 414 1029 449 c 4
 1039 454 1048 461 1059 464 c 4
 1066 466 1074 470 1081 470 c 4
430 161 m 4
 431 161 458 159 458 112 c 4
 458 81 440 71 405 53 c 4
 379 40 347 26 323 26 c 4
 314 26 310 29 310 34 c 4
 310 39 298 55 298 61 c 4
 298 90 428 161 430 161 c 4
EndSplineSet
EndChar

StartChar: OE
Encoding: 338 338 28
Width: 1172
Flags: HW
HStem: -3 123<380.712 539.124 648 971.892 972 1041.8> 700 98<393.009 476.574 705.036 1046.82>
VStem: 40 175<277.194 488.786> 612 178<295.662 531.088>
LayerCount: 2
Fore
SplineSet
700 -1 m 0
 698 -1 571 -4 544 -4 c 0
 507 -4 466 -3 428 -3 c 2
 396 -3 l 2
 385 -3 375 -4 368 -4 c 0
 365 -4 362 -3 360 -3 c 0
 256 3 133 91 84 166 c 0
 59 204 59 231 51 246 c 0
 41 266 40 315 40 327 c 2
 40 344 l 2
 40 440 56 579 238 701 c 0
 286 733 398 798 513 798 c 0
 522 798 530 799 539 799 c 0
 562 799 587 798 623 798 c 2
 627 798 l 2
 685 798 767 801 842 801 c 2
 849 801 l 2
 890 801 925 800 951 800 c 2
 1028 800 l 2
 1035 800 1041 799 1048 799 c 2
 1056 799 l 2
 1096 799 1110 798 1110 783 c 0
 1110 777 1107 768 1094 758 c 0
 1079 746 1072 734 1036 716 c 0
 1009 702 987 696 968 696 c 0
 965 696 961 697 958 697 c 0
 947 698 928 698 906 698 c 2
 791 698 l 1
 755 697 705 699 705 693 c 0
 705 691 711 680 717 671 c 0
 735 645 763 588 776 547 c 0
 786 516 790 480 790 439 c 0
 790 203 648 134 648 119 c 0
 648 118 648 118 649 118 c 0
 653 115 685 115 727 115 c 0
 823 115 972 119 972 119 c 1
 1001 119 l 2
 1051 119 1057 118 1078 108 c 0
 1099 97 1113 88 1113 76 c 2
 1113 75 l 2
 1113 44 996 -5 973 -5 c 2
 960 -5 l 1
 840 -2 758 -1 700 -1 c 0
612 412 m 0
 612 559 511 700 403 700 c 2
 398 700 l 1
 341 693 253 614 226 514 c 0
 216 479 215 439 215 411 c 2
 215 390 l 1
 216 337 222 212 371 146 c 0
 405 131 445 120 480 120 c 0
 492 120 504 121 514 124 c 0
 598 152 612 356 612 412 c 0
881 362 m 0
 881 392 972 481 1033 481 c 2
 1036 481 l 1
 1071 478 1132 442 1132 412 c 2
 1132 411 l 1
 1130 383 1033 308 995 303 c 1
 987 303 l 2
 963 303 888 328 882 356 c 0
 882 358 881 360 881 362 c 0
EndSplineSet
EndChar

StartChar: D
Encoding: 68 68 31
Width: 934
Flags: W
HStem: -1 88<218.792 573.412> 18 93<122.892 333.072> 320 139<143.141 229.921> 719 83<213.682 507.217>
VStem: 711 183<214.35 487.189>
LayerCount: 2
Fore
SplineSet
107 707 m 0xb8
 102 707 74 708 67 728 c 1
 71 787 456 802 460 802 c 0
 526 802 612 795 714 737 c 0
 817 679 894 552 894 379 c 0
 894 341 891 318 888 293 c 0
 874 196 869 173 769 100 c 0
 698 47 547 -1 390 -1 c 0xb8
 280 -1 82 18 79 18 c 0
 65 18 58 17 51 17 c 0
 44 17 40 18 40 22 c 0
 40 34 98 81 129 92 c 0
 168 106 182 111 198 111 c 0x78
 231 111 182 107 394 93 c 0
 395 93 483 87 494 87 c 0
 550 87 627 103 649 121 c 0
 694 157 711 253 711 336 c 0
 711 435 687 577 564 672 c 0
 507 717 335 719 306 719 c 0
 239 719 204 711 165 711 c 0
 161 711 155 711 155 711 c 0
 140 711 123 707 107 707 c 0xb8
169 320 m 0
 157 320 98 330 98 373 c 0
 98 407 118 428 185 459 c 0
 252 491 253 491 273 491 c 0
 288 491 290 489 300 481 c 0
 326 459 347 441 347 425 c 0
 347 421 316 395 300 379 c 0
 251 331 180 320 169 320 c 0
EndSplineSet
EndChar

StartChar: Ccedilla
Encoding: 199 199 32
Width: 793
Flags: HW
HStem: -46 164<374.641 431.534> 152 114<308.976 657.094> 181 104<557.106 711.879> 719 79<396.765 676.446>
VStem: 40 169<332.365 518.664>
LayerCount: 2
Fore
SplineSet
655 692 m 0xd8
 645 692 580 719 512 719 c 0
 508 719 442 718 363 685 c 0
 330 671 292 661 268 635 c 0
 243 608 209 548 209 423 c 0
 209 336 226 327 289 295 c 0
 320 279 429 266 478 266 c 0xd8
 559 266 702 285 704 285 c 0
 725 285 753 269 753 264 c 0
 753 245 713 194 681 181 c 0xb8
 638 163 499 152 404 152 c 0
 392 152 285 153 243 167 c 0
 190 185 128 212 96 250 c 0
 77 272 40 322 40 392 c 0
 40 416 49 464 56 497 c 0
 69 558 97 608 135 642 c 0
 179 682 310 798 569 798 c 0
 695 798 734 770 734 765 c 0
 734 750 689 692 655 692 c 0xd8
344 -46 m 4
 292 -46 286 2 286 9 c 4
 286 24 288 27 318 59 c 4
 343 85 412 118 452 118 c 4
 470 118 511 84 511 52 c 4
 511 51 511 49 511 48 c 4
 508 16 469 -2 441 -19 c 4
 426 -28 391 -46 344 -46 c 4
EndSplineSet
EndChar

StartChar: E
Encoding: 69 69 34
Width: 1000
HStem: 6 96<737 822 843 847.395> 10 101<287 818> 699 97<485.418 724.546 729.272 838.556>
VStem: 109 176<109.467 336.256 351.848 425.273 435.007 685.319> 118 174<110.488 656.598>
LayerCount: 2
Fore
SplineSet
554 796 m 4xb0
 620 796 703 796 776 796 c 4
 785 796 802 796 802 796 c 4
 817 796 836 796 853 796 c 4
 887 796 895 793 895 788 c 4
 895 778 822 698 810 698 c 4
 808 698 809 699 806 699 c 4
 791 699 797 692 726 692 c 4
 695 692 663 694 632 694 c 4
 560 694 514 693 484 692 c 4
 418 689 311 695 288 679 c 4
 284 677 282 674 282 667 c 4
 282 655 287 635 287 615 c 4
 287 604 285 610 285 594 c 4xb0
 285 570 292 538 292 430 c 4
 292 329 286 238 286 137 c 4
 286 122 287 113 287 112 c 4
 289 110 323 108 354 108 c 4
 390 108 396 111 438 111 c 4
 438 111 443 111 450 111 c 4
 483 111 528 111 530 111 c 4x68
 565 111 665 109 737 106 c 6
 872 101 l 5
 901 102 l 6
 902 102 l 4
 904 102 905 101 905 99 c 4
 905 91 890 70 883 60 c 4
 873 46 856 36 843 24 c 4
 836 18 828 6 822 6 c 4xa8
 821 6 698 11 674 11 c 4
 662 11 669 10 647 10 c 4
 638 10 612 10 562 10 c 4x68
 391 10 186 6 182 6 c 4
 177 6 169 7 169 7 c 4
 164 7 160 6 155 6 c 4
 111 6 110 55 110 59 c 4
 110 62 118 178 118 344 c 4xa8
 118 512 109 644 109 647 c 4
 109 677 111 713 114 717 c 4
 120 725 159 771 171 774 c 4
 205 783 279 796 322 796 c 4
 329 796 336 796 343 796 c 4
 375 796 450 796 497 796 c 4
 516 796 535 796 554 796 c 4xb0
618 369 m 4
 618 396 728 482 784 482 c 4
 811 482 874 450 874 421 c 4
 874 420 874 420 874 419 c 4
 871 398 846 387 830 374 c 4
 812 359 792 347 772 336 c 4
 753 325 734 309 712 309 c 4
 698 309 672 318 659 323 c 4
 642 330 618 359 618 369 c 4
EndSplineSet
EndChar

StartChar: E
Encoding: 69 69 35
Width: 876
Flags: W
HStem: 6 96<668 753 774 778.395> 10 101<218 749> 699 97<416.418 655.546 660.272 769.556>
VStem: 40 176<109.467 336.256 351.848 425.273 435.007 685.319> 49 174<110.488 656.598>
LayerCount: 2
Fore
SplineSet
485 796 m 0xb0
 551 796 634 796 707 796 c 0
 716 796 733 796 733 796 c 0
 748 796 767 796 784 796 c 0
 818 796 826 793 826 788 c 0
 826 778 753 698 741 698 c 0
 739 698 740 699 737 699 c 0
 722 699 728 692 657 692 c 0
 626 692 594 694 563 694 c 0
 491 694 445 693 415 692 c 0
 349 689 242 695 219 679 c 0
 215 677 213 674 213 667 c 0
 213 655 218 635 218 615 c 0
 218 604 216 610 216 594 c 0xb0
 216 570 223 538 223 430 c 0
 223 329 217 238 217 137 c 0
 217 122 218 113 218 112 c 0
 220 110 254 108 285 108 c 0
 321 108 327 111 369 111 c 0
 369 111 374 111 381 111 c 0
 414 111 459 111 461 111 c 0x68
 496 111 596 109 668 106 c 2
 803 101 l 1
 832 102 l 2
 833 102 l 0
 835 102 836 101 836 99 c 0
 836 91 821 70 814 60 c 0
 804 46 787 36 774 24 c 0
 767 18 759 6 753 6 c 0xa8
 752 6 629 11 605 11 c 0
 593 11 600 10 578 10 c 0
 569 10 543 10 493 10 c 0x68
 322 10 117 6 113 6 c 0
 108 6 100 7 100 7 c 0
 95 7 91 6 86 6 c 0
 42 6 41 55 41 59 c 0
 41 62 49 178 49 344 c 0xa8
 49 512 40 644 40 647 c 0
 40 677 42 713 45 717 c 0
 51 725 90 771 102 774 c 0
 136 783 210 796 253 796 c 0
 260 796 267 796 274 796 c 0
 306 796 381 796 428 796 c 0
 447 796 466 796 485 796 c 0xb0
539 369 m 4
 539 396 649 482 705 482 c 4
 732 482 795 450 795 421 c 4
 795 420 795 420 795 419 c 4
 792 398 767 387 751 374 c 4
 733 359 713 347 693 336 c 4
 674 325 655 309 633 309 c 4
 619 309 593 318 580 323 c 4
 563 330 539 359 539 369 c 4
EndSplineSet
EndChar

StartChar: F
Encoding: 70 70 36
Width: 869
Flags: HW
HStem: 678 121<232.514 728>
VStem: 55 174<307.791 668.947> 77 168<60.8077 643.241>
LayerCount: 2
Fore
SplineSet
77 683 m 0xa0
 77 694 40 701 40 712 c 0
 40 719 88 741 104 760 c 0
 137 799 166 799 181 799 c 0
 181 799 204 798 231 798 c 0
 270 798 301 799 332 799 c 0
 371 799 381 798 399 798 c 0
 423 798 455 799 498 799 c 0
 517 799 538 799 562 798 c 0
 808 789 829 787 829 757 c 0
 829 738 822 734 757 689 c 0
 748 683 728 675 728 675 c 1
 624 676 l 2
 551 677 486 678 431 678 c 0
 314 678 242 675 232 669 c 0
 230 668 229 659 229 645 c 0xc0
 229 608 233 537 240 484 c 0
 243 462 245 350 245 250 c 0
 245 130 244 85 235 72 c 0
 205 32 109 -7 91 -7 c 0
 80 -7 67 13 67 16 c 0
 67 18 68 18 71 19 c 0
 76 20 77 31 77 107 c 0xa0
 77 110 77 391 72 415 c 0
 62 460 61 619 56 642 c 0
 56 643 55 645 55 646 c 0xc0
 55 661 77 674 77 683 c 0xa0
675 446 m 4
 676 446 747 440 747 382 c 4
 747 375 746 368 744 360 c 4
 741 349 709 314 697 306 c 4
 680 295 629 267 581 267 c 4
 560 267 559 272 550 278 c 4
 526 294 520 299 520 310 c 4
 520 312 530 365 651 437 c 4
 663 444 668 446 675 446 c 4
EndSplineSet
EndChar

StartChar: G
Encoding: 71 71 43
Width: 890
Flags: W
HStem: -6 125<360.619 683.264> 688 105<412.696 726.362>
VStem: 40 160<267.139 413.228>
LayerCount: 2
Fore
SplineSet
538 793 m 6
 618 793 l 6
 746 793 785 793 785 779 c 4
 785 765 740 703 727 695 c 4
 715 687 599 687 598 687 c 4
 597 687 499 688 491 688 c 4
 437 688 374 688 315 633 c 4
 289 609 269 594 239 531 c 4
 203 458 200 432 200 365 c 4
 200 337 203 317 205 309 c 4
 224 248 251 224 279 188 c 4
 336 126 461 119 516 119 c 4
 741 119 758 198 782 198 c 4
 794 198 839 168 839 157 c 4
 839 144 750 34 689 15 c 4
 683 13 574 -6 487 -6 c 4
 486 -6 222 -2 167 42 c 4
 121 79 40 161 40 284 c 4
 40 344 57 405 78 461 c 4
 103 527 104 547 198 636 c 4
 282 715 395 793 538 793 c 6
753 477 m 4
 762 478 768 479 773 479 c 4
 795 479 830 446 837 437 c 6
 850 421 l 5
 824 393 l 6
 800 367 781 362 766 348 c 4
 764 346 718 304 658 304 c 4
 589 304 581 366 581 369 c 4
 581 398 600 409 652 439 c 4
 675 451 731 477 753 477 c 4
EndSplineSet
EndChar

StartChar: H
Encoding: 72 72 44
Width: 1000
HStem: -1 21G<692 695.5> 321 140<385.411 476.83> 779 20G<814.5 818>
VStem: 45 175<46.5 751.136> 47 176<45 276.9> 649 186<40.0566 493.589> 653 169<398.343 548.354 554.362 739>
LayerCount: 2
Fore
SplineSet
653 282 m 4xe2
 653 285 646 455 646 553 c 4
 646 582 646 614 647 652 c 6
 649 739 l 5xe4
 664 752 l 6
 708 791 800 794 813 798 c 5
 813 798 814 799 815 799 c 4
 821 799 823 789 823 766 c 4
 823 756 823 744 822 728 c 4xe2
 832 191 835 161 835 155 c 4
 835 98 832 63 826 53 c 4
 805 16 699 -1 692 -1 c 6
 692 -1 684 0 683 -0 c 4
 667 0 663 -3 658 -3 c 4
 657 -3 649 -3 649 4 c 4xe4
 649 7 653 107 653 282 c 4xe2
47 307 m 6xe8
 47 353 45 297 45 445 c 4
 45 561 48 733 51 741 c 4
 55 751 163 791 187 791 c 4
 194 791 203 780 208 772 c 6
 220 753 l 5
 216 578 l 6
 215 537 215 500 215 470 c 4
 215 365 220 428 220 342 c 4xf0
 220 341 219 287 219 277 c 4
 219 276 223 202 223 141 c 6
 223 45 l 5
 212 35 l 5
 173 1 97 0 96 0 c 6
 89 0 l 6
 53 0 50 -2 50 -2 c 6
 48 -2 46 12 46 20 c 4
 46 23 47 135 47 271 c 6
 47 307 l 6xe8
323 371 m 4
 323 420 409 461 473 461 c 4
 480 461 499 460 509 455 c 4
 524 447 551 419 551 413 c 4
 551 395 498 353 463 335 c 4
 439 323 400 321 396 321 c 6
 365 321 l 6
 327 321 332 340 325 358 c 4
 324 362 323 367 323 371 c 4
EndSplineSet
EndChar

StartChar: H
Encoding: 72 72 45
Width: 870
Flags: W
HStem: 321 140<380.411 471.83>
VStem: 40 175<46.5 751.136> 42 176<45 276.9> 644 186<40.0566 493.589> 648 169<398.343 548.354 554.362 739>
LayerCount: 2
Fore
SplineSet
648 282 m 4x88
 648 285 641 455 641 553 c 4
 641 582 641 614 642 652 c 6
 644 739 l 5x90
 659 752 l 6
 703 791 795 794 808 798 c 5
 808 798 809 799 810 799 c 4
 816 799 818 789 818 766 c 4
 818 756 818 744 817 728 c 4x88
 827 191 830 161 830 155 c 4
 830 98 827 63 821 53 c 4
 800 16 694 -1 687 -1 c 6
 687 -1 679 0 678 0 c 4
 662 0 658 -3 653 -3 c 4
 652 -3 644 -3 644 4 c 4x90
 644 7 648 107 648 282 c 4x88
42 307 m 6xa0
 42 353 40 297 40 445 c 4
 40 561 43 733 46 741 c 4
 50 751 158 791 182 791 c 4
 189 791 198 780 203 772 c 6
 215 753 l 5
 211 578 l 6
 210 537 210 500 210 470 c 4
 210 365 215 428 215 342 c 4xc0
 215 341 214 287 214 277 c 4
 214 276 218 202 218 141 c 6
 218 45 l 5
 207 35 l 5
 168 1 92 0 91 0 c 6
 84 0 l 6
 48 0 45 -2 45 -2 c 6
 43 -2 41 12 41 20 c 4
 41 23 42 135 42 271 c 6
 42 307 l 6xa0
318 371 m 4
 318 420 404 461 468 461 c 4
 475 461 494 460 504 455 c 4
 519 447 546 419 546 413 c 4
 546 395 493 353 458 335 c 4
 434 323 395 321 391 321 c 6
 360 321 l 6
 322 321 327 340 320 358 c 4
 319 362 318 367 318 371 c 4
EndSplineSet
EndChar

StartChar: I
Encoding: 73 73 46
Width: 328
Flags: W
HStem: -18 21G<67.5 82> 797 20G<252.5 263>
VStem: 60 201<47.084 177.785> 69 193<69.092 510.736> 79 189<337.297 696 696.028 737>
LayerCount: 2
Fore
SplineSet
69 -18 m 4xd0
 66 -18 60 -18 60 9 c 4xe0
 60 26 63 44 63 44 c 5
 65 93 66 118 69 159 c 4xd0
 69 164 74 638 77 686 c 6
 79 737 l 5
 93 746 l 6
 125 768 245 817 260 817 c 4
 266 817 268 814 268 793 c 4
 268 781 268 765 268 753 c 4xc8
 268 734 267 696 267 696 c 6
 266 634 262 345 262 339 c 4xd0
 262 321 263 301 263 283 c 4
 263 238 259 253 259 180 c 4
 259 133 261 70 261 69 c 4xe0
 261 57 259 57 250 52 c 4
 228 40 171 18 157 13 c 4
 144 9 95 -18 69 -18 c 4xd0
EndSplineSet
EndChar

StartChar: J
Encoding: 74 74 47
Width: 580
Flags: W
HStem: -13 164<138.641 195.534> 797 20G<514.5 525>
VStem: 322 201<67.084 197.785> 331 193<89.092 537.818> 341 189<339.433 696 696.028 737>
LayerCount: 2
Fore
SplineSet
108 -13 m 0xc0
 56 -13 50 35 50 42 c 0
 50 57 52 60 82 92 c 0
 107 118 176 151 216 151 c 0
 234 151 275 117 275 85 c 0
 275 84 275 82 275 81 c 0
 272 49 233 31 205 14 c 0
 190 5 155 -13 108 -13 c 0xc0
331 2 m 4xd0
 328 2 322 2 322 29 c 4xe0
 322 46 325 64 325 64 c 5
 327 113 328 138 331 179 c 4xd0
 331 184 336 638 339 686 c 2
 341 737 l 1
 355 746 l 2
 387 768 507 817 522 817 c 0
 528 817 530 814 530 793 c 0
 530 781 530 765 530 753 c 0xc8
 530 734 529 696 529 696 c 2
 528 634 524 365 524 359 c 4xd0
 524 341 525 321 525 303 c 4
 525 258 521 273 521 200 c 4
 521 153 523 90 523 89 c 4xe0
 523 77 521 77 512 72 c 4
 490 60 433 38 419 33 c 4
 406 29 357 2 331 2 c 4xd0
EndSplineSet
EndChar

StartChar: K
Encoding: 75 75 68
Width: 874
Flags: W
HStem: -7 204<650.203 767.848> 787 20G<182.314 210.5>
VStem: 43 179<33.1538 263.997> 49 181<349.13 741.39> 573 261<44.2547 130.276>
LayerCount: 2
Fore
SplineSet
203 807 m 1xd8
 205 807 l 2
 216 807 218 798 223 788 c 0
 230 773 231 760 231 708 c 2
 231 653 l 2
 231 601 227 550 227 499 c 0
 227 492 228 484 228 477 c 0
 229 439 229 405 230 364 c 0
 230 348 238 346 243 346 c 2
 244 346 l 1
 255.434570312 347.143554688 461.233398438 510.516601562 563 609 c 0
 577.534179688 623.534179688 581.729492188 627.786132812 659 711 c 0
 675 729 692 753 708 766 c 0
 715 772 724 784 743 789 c 0
 761 794 776 795 789 795 c 2
 802 795 l 1
 821 794 827 791 827 762 c 2
 827 754 l 2
 827 735 817 693 806 676 c 0
 780 637 722 597 693 571 c 0
 619 504 607 500 563 467 c 0
 517 432 489 407 421 365 c 0
 419.21875 364.010742188 247.9765625 267.313476562 244 264 c 0
 232 255 233 256 230 201 c 0xd8
 227 159 223 82 222 57 c 0
 219.5 19.5068359375 70.603515625 -15 57 -15 c 2
 54 -15 l 2
 49.8193359375 -15 40 -15 40 9 c 0
 40 27 43 56 43 76 c 0xe8
 46.814453125 224.75 48 271 48 323 c 0
 48 352 49 380 49 409 c 2
 49 448 l 2
 49 495 45 542 45 589 c 2
 45 609 l 1
 46 653 46 730 53 742 c 0
 65.6103515625 764.068359375 161.62890625 803.645507812 203 807 c 1xd8
667 -7 m 1
 614.479492188 -1.373046875 573 12.6474609375 573 75 c 0
 573 94.4736328125 574.080078125 101.529296875 585 119 c 0
 593.184570312 130.458007812 612.372070312 153.712890625 644 171.86328125 c 4
 668.588867188 185.973632812 700.697265625 197 741 197 c 2
 748 197 l 2
 788.467773438 197 834 140.838867188 834 95 c 2
 834 89 l 1
 828.921875 12.8232421875 706.293945312 -7 677 -7 c 2
 667 -7 l 1
EndSplineSet
EndChar

StartChar: L
Encoding: 76 76 69
Width: 803
Flags: W
HStem: -1 116<236.646 693.243> 787 20G<192 196>
VStem: 40 181<293.706 735.938> 50 184<115 366.655>
LayerCount: 2
Fore
SplineSet
730 114 m 2xd0
 738 114 763 114 763 100 c 0
 763 86 712 8 635 0 c 0
 626 -1 591 -1 552 -1 c 2
 378 -1 l 2
 362 -1 336 -1 255 0 c 0
 119 2 102 3 77 11 c 2
 50 20 l 1xd0
 42 181 40 313 40 463 c 2
 40 510 l 2
 40 543 41 575 41 608 c 0
 41 650 43 736 43 736 c 1
 96 785 192 807 192 807 c 2
 200 807 202 801 210 790 c 0
 219 778 221 741 221 702 c 2
 221 634 l 2xe0
 221 629 224 273 234 115 c 1
 278 115 l 2
 328 115 376 116 428 116 c 0
 448 116 467 115 488 115 c 0
 529 114 570 113 601 113 c 0
 645 113 674 114 675 114 c 2
 730 114 l 2xd0
EndSplineSet
EndChar

StartChar: M
Encoding: 77 77 70
Width: 961
Flags: HW
HStem: 680 86<234.71 494.83> 698 101<512.165 669.329>
VStem: 46 187<34.1218 665.852> 660 180<36.5695 416.573> 669 170<152.673 697.993>
LayerCount: 2
Fore
SplineSet
46 432 m 0xa8
 46 721 40 706 40 709 c 0
 40 726 67 747 75 749 c 0
 121 762 198 796 213 796 c 2
 214 796 l 2
 227 796 228 795 229 785 c 0
 229 779 232 769 233 768 c 0
 234 767 240 766 249 766 c 0xa8
 253 766 656 781 743 787 c 0
 781 790 820 797 858 799 c 1
 905 799 l 1
 909 784 l 2
 912 773 916 763 916 730 c 2
 916 704 l 2
 916 677 917 644 918 615 c 0
 918 591 919 567 919 543 c 2
 919 488 l 2x68
 919 452 920 417 920 381 c 0
 920 340 921 298 921 257 c 0
 921 205 921 154 920 102 c 1
 920 85 l 2
 920 48 914 45 906 40 c 0
 827 -4 761 -10 759 -10 c 0
 745 -10 740 -10 740 72 c 0x70
 740 76 748 401 749 486 c 1
 749 494 l 2
 749 523 748 551 748 580 c 2
 748 585 l 2
 748 602 749 617 749 634 c 2
 749 642 l 2
 749 650 750 659 750 667 c 0
 750 689 740 698 736 698 c 0x68
 735 698 734 697 733 697 c 0
 677 691 667 684 606 684 c 0
 537 684 532 681 504 680 c 0
 495 680 465 679 456 679 c 0
 430 679 383 680 357 680 c 0
 356 680 248 680 234 666 c 0
 231 663 230 650 230 617 c 0
 230 615 233 440 233 427 c 2
 233 420 l 2
 233 416 230 73 227 57 c 0
 225 38 225 38 180 23 c 0
 179 23 82 -4 68 -4 c 0
 66 -4 64 -4 62 -3 c 2
 44 3 l 1
 45 202 l 2
 45 292 46 368 46 432 c 0xa8
462 258 m 0
 461 258 387 260 387 310 c 0
 387 311 387 313 387 314 c 0
 388 323 393 335 405 355 c 0
 436 403 486 418 490 418 c 0
 504 419 513 428 535 428 c 0
 538 428 541 428 544 428 c 0
 555 427 566 423 572 418 c 0
 580 411 606 385 606 367 c 0
 606 366 606 365 606 364 c 0
 604 346 588 315 550 287 c 0
 524 268 479 258 462 258 c 0
EndSplineSet
EndChar

StartChar: N
Encoding: 78 78 71
Width: 917
Flags: HW
LayerCount: 2
Fore
SplineSet
608 672 m 0
 608 733.05078125 713.536132812 799 767 799 c 2
 776 799 l 1
 814 798 834 789 854 766 c 0
 863 756 870 747 870 746 c 0
 871 741 877 715 877 700 c 2
 877 698 l 1
 874.185546875 669.858398438 792.879882812 628 784 628 c 0
 772.584960938 628 767.537109375 613 722 613 c 2
 711 613 l 2
 694 613 679 619 673 619 c 0
 643 619 608 648 608 672 c 0
52 7 m 0
 52 28.0126953125 62 77.037109375 62 248 c 0
 62 279 61 310 61 341 c 0
 59.2138671875 439.232421875 54.1318359375 667.321289062 45 697 c 0
 44 700 40 704 40 706 c 0
 40 712 62 733 76 743 c 0
 84.994140625 749.595703125 181.14453125 796 233 796 c 2
 240 796 l 2
 245 796 249 795 250 795 c 0
 254 794 265 782 275 769 c 0
 299.6875 735.216796875 388.93359375 616.599609375 390 615 c 0
 391.685546875 612.470703125 471.909179688 512.044921875 591 387 c 0
 593.771484375 384.08984375 743.190429688 220.770507812 866 94 c 0
 872 88 876 83 876 79 c 0
 876 70 861 65 837 51 c 0
 835.940429688 50.3740234375 750.063476562 0 725 0 c 0
 720 0 717 1 714 4 c 2
 681 34 l 2
 584.852539062 122.751953125 290.720703125 451.098632812 266 482 c 0
 263 487 255 495 253 495 c 1
 253 483 l 2
 253 479.376953125 244.364257812 210.399414062 239 121 c 0
 238 111 236 101 236 91 c 0
 236 76 235 69 231 66 c 0
 162.807617188 9.1728515625 61.8154296875 5 60 5 c 0
 56 5 53 6 52 7 c 0
EndSplineSet
EndChar

StartChar: O
Encoding: 79 79 72
Width: 1000
Flags: H
LayerCount: 2
Fore
SplineSet
393.942382812 -395.123046875 m 1
 393.942382812 -395.123046875 l 1
 399.125 -395.19140625 403.528320312 -395.568359375 404.284179688 -396.32421875 c 0
 404.563476562 -396.603515625 404.212890625 -397.526367188 403.508789062 -398.375 c 0
 402.450195312 -399.650390625 402.544921875 -400.267578125 404.053710938 -401.93359375 c 0
 405.057617188 -403.04296875 406.420898438 -403.741210938 407.084960938 -403.486328125 c 0
 409.040039062 -402.736328125 421.555664062 -406.342773438 427.504882812 -409.369140625 c 0
 444.734375 -418.134765625 466.557617188 -436.631835938 471.612304688 -446.755859375 c 0
 472.333007812 -448.19921875 473.358398438 -449.970703125 473.889648438 -450.693359375 c 0
 475.5390625 -452.935546875 478.583007812 -461.978515625 480.852539062 -471.37890625 c 0
 483.448242188 -482.129882812 483.865234375 -482.87890625 487.231445312 -482.87890625 c 0
 490.708984375 -482.87890625 489.6953125 -483.758789062 485.881835938 -484.048828125 c 2
 482.862304688 -484.27734375 l 1
 481.625976562 -496.740234375 l 2
 480.946289062 -503.594726562 479.704101562 -510.529296875 478.864257812 -512.15234375 c 0
 478.024414062 -513.776367188 477.091796875 -517.641601562 476.790039062 -520.7421875 c 0
 476.48828125 -523.842773438 475.71875 -527.0546875 475.081054688 -527.87890625 c 0
 473.252929688 -530.244140625 470.180664062 -540.545898438 470.938476562 -541.771484375 c 0
 471.321289062 -542.391601562 470.97265625 -542.87890625 470.145507812 -542.87890625 c 0
 469.333007812 -542.87890625 467.680664062 -544.478515625 466.473632812 -546.431640625 c 0
 465.266601562 -548.384765625 463.091796875 -550.729492188 461.641601562 -551.642578125 c 0
 460.19140625 -552.556640625 457.8125 -554.506835938 456.354492188 -555.978515625 c 0
 454.896484375 -557.451171875 450.508789062 -560.72265625 446.604492188 -563.248046875 c 0
 442.700195312 -565.774414062 439.504882812 -568.298828125 439.504882812 -568.859375 c 0
 439.504882812 -569.420898438 441.192382812 -569.887695312 443.254882812 -569.89453125 c 0
 445.9140625 -569.90625 446.584960938 -570.177734375 445.559570312 -570.826171875 c 0
 444.763671875 -571.330078125 441.838867188 -571.576171875 439.059570312 -571.373046875 c 0
 435.3046875 -571.099609375 432.076171875 -571.725585938 426.504882812 -573.806640625 c 0
 422.379882812 -575.348632812 416.529296875 -577.334960938 413.504882812 -578.22265625 c 0
 410.479492188 -579.111328125 405.000976562 -580.723632812 401.329101562 -581.8046875 c 0
 391.548828125 -584.684570312 380.052734375 -585.075195312 366.504882812 -582.98828125 c 0
 346.00390625 -579.83203125 335.614257812 -575.23046875 326.086914062 -565.0859375 c 0
 309.553710938 -547.483398438 305.762695312 -541.848632812 300.965820312 -527.7578125 c 0
 298.159179688 -519.513671875 296.83984375 -503.897460938 298.383789062 -497.19140625 c 0
 298.993164062 -494.545898438 299.657226562 -490.69140625 299.860351562 -488.62890625 c 2
 300.229492188 -484.87890625 l 1
 295.868164062 -484.87890625 l 2
 293.279296875 -484.87890625 291.504882812 -484.418945312 291.504882812 -483.744140625 c 0
 291.504882812 -482.974609375 292.946289062 -482.8046875 295.981445312 -483.220703125 c 0
 299.612304688 -483.71875 300.629882812 -483.508789062 301.362304688 -482.107421875 c 0
 301.859375 -481.157226562 304.8359375 -471.829101562 307.979492188 -461.37890625 c 0
 314.055664062 -441.178710938 316.744140625 -435.647460938 324.422851562 -427.546875 c 0
 334.111328125 -417.326171875 345.607421875 -410.189453125 365.958007812 -401.76171875 c 0
 370.934570312 -399.701171875 374.907226562 -397.576171875 374.786132812 -397.0390625 c 0
 374.497070312 -395.755859375 385.303710938 -395.009765625 393.942382812 -395.123046875 c 1
374.010742188 -423.88671875 m 2
 374.010742188 -423.88671875 l 2
 371.912109375 -423.915039062 370.467773438 -424.131835938 370.184570312 -424.58984375 c 0
 369.822265625 -425.17578125 367.362304688 -425.254882812 363.928710938 -424.7890625 c 0
 359.270507812 -424.157226562 357.969726562 -424.317382812 356.567382812 -425.69921875 c 0
 352.890625 -429.325195312 349.727539062 -436.487304688 349.000976562 -442.830078125 c 0
 348.594726562 -446.377929688 347.416992188 -451.25390625 346.383789062 -453.6640625 c 0
 345.350585938 -456.075195312 344.504882812 -459.251953125 344.504882812 -460.7265625 c 0
 344.504882812 -462.201171875 343.604492188 -465.870117188 342.504882812 -468.87890625 c 0
 341.404296875 -471.888671875 340.504882812 -476.243164062 340.504882812 -478.552734375 c 0
 340.504882812 -482.54296875 340.66796875 -482.7734375 343.754882812 -483.15625 c 0
 346.404296875 -483.485351562 346.172851562 -483.58984375 342.504882812 -483.71875 c 2
 338.004882812 -483.879882812 l 1
 338.266601562 -494.129882812 l 2
 338.850585938 -516.98828125 341.8828125 -524.1640625 357.920898438 -540.669921875 c 0
 366.216796875 -549.208007812 375.7578125 -554.385742188 386.940429688 -556.416992188 c 0
 396.389648438 -558.1328125 415.608398438 -558.177734375 422.735351562 -556.5 c 0
 426.423828125 -555.6328125 429.16015625 -554.301757812 430.416992188 -552.765625 c 0
 433.047851562 -549.551757812 440.293945312 -532.359375 441.116210938 -527.37890625 c 0
 441.479492188 -525.1796875 442.614257812 -521.7109375 443.639648438 -519.669921875 c 0
 445.198242188 -516.568359375 445.489257812 -513.780273438 445.405273438 -502.669921875 c 0
 445.276367188 -485.504882812 445 -484.544921875 439.963867188 -483.771484375 c 0
 436.202148438 -483.194335938 436.166992188 -483.157226562 439.254882812 -483.021484375 c 0
 443.198242188 -482.849609375 443.407226562 -481.278320312 440.504882812 -473.640625 c 0
 439.405273438 -470.748046875 438.504882812 -467.822265625 438.504882812 -467.138671875 c 0
 438.504882812 -466.030273438 435.109375 -461.1015625 429.368164062 -453.87890625 c 0
 428.275390625 -452.50390625 426.658203125 -450.178710938 425.774414062 -448.708984375 c 0
 424.890625 -447.240234375 423.083007812 -445.45703125 421.758789062 -444.748046875 c 0
 420.434570312 -444.040039062 418.916015625 -442.647460938 418.385742188 -441.65625 c 0
 417.146484375 -439.340820312 403.556640625 -430.326171875 396.786132812 -427.328125 c 0
 392.478515625 -425.420898438 380.306640625 -423.802734375 374.010742188 -423.88671875 c 2
EndSplineSet
EndChar

StartChar: O
Encoding: 79 79 73
Width: 909
Flags: W
HStem: -18 115<395.91 559.904>
VStem: 40 184<299.852 497.69> 701 168<263.764 479.228>
LayerCount: 2
Fore
SplineSet
386 816 m 5
 386 821 437 824 475 824 c 6
 484 824 l 6
 507 824 527 822 530 819 c 5
 530 817 l 6
 530 814 530 814 506 790 c 5
 515 790 l 6
 621 790 775 671 828 577 c 4
 853 535 869 461 869 407 c 6
 869 405 l 6
 869 402 866 239 795 150 c 4
 771 119 740 94 708 72 c 4
 706 71 591 3 510 -9 c 4
 476 -14 441 -18 406 -18 c 4
 387 -18 367 -17 349 -13 c 4
 269 3 127 42 57 233 c 4
 44 269 40 308 40 347 c 4
 40 357 41 367 41 377 c 4
 43 429 53 482 72 531 c 4
 135 692 222 743 347 795 c 4
 369 804 386 813 386 816 c 5
393 699 m 4
 385 700 376 700 368 700 c 4
 331 700 311 689 311 689 c 4
 304 681 224 587 224 428 c 4
 224 425 227 267 311 175 c 4
 332 152 395 97 518 97 c 4
 525 97 614 97 634 121 c 4
 635 123 701 229 701 341 c 6
 701 345 l 5
 699 430 694 487 614 586 c 4
 596 609 522 664 484 681 c 4
 465 690 424 696 393 699 c 4
EndSplineSet
EndChar

StartChar: Q
Encoding: 81 81 74
Width: 873
Flags: HW
HStem: -5 186<417.283 477.563> 256 126<330.875 583.371> 696 114<333.588 526.672>
VStem: 40 181<462.265 575.08> 667 166<430.867 570.125>
LayerCount: 2
Fore
SplineSet
440 809 m 4
 446 808 440 806 456 804 c 4
 660 777 735 742 793 670 c 4
 802 658 833 619 833 541 c 4
 833 533 832 525 832 517 c 4
 828 461 821 425 763 373 c 4
 650 271 510 259 425 257 c 4
 408 257 390 256 373 256 c 4
 332 256 200 256 109 337 c 4
 76 366 40 415 40 488 c 4
 40 519 43 572 120 660 c 4
 150 695 188 723 228 747 c 4
 264 768 380 810 433 810 c 4
 435 810 438 809 440 809 c 4
480 382 m 6
 485 382 l 6
 499 382 513 381 527 381 c 4
 558 381 629 392 653 422 c 4
 665 438 667 460 667 481 c 6
 667 491 l 6
 667 506 662 624 517 680 c 4
 496 688 474 695 451 696 c 5
 434 696 l 6
 405 696 379 692 345 682 c 5
 344 682 l 6
 343 682 343 683 343 684 c 4
 343 687 344 691 344 694 c 4
 344 695 344 696 343 696 c 4
 240 682 221 571 221 540 c 6
 221 538 l 6
 221 505 233 471 254 446 c 4
 273 424 343 382 480 382 c 6
567 109 m 4
 567 56.673828125 462.91015625 -5 402 -5 c 4
 385 -5 352 -5 326 19 c 4
 316 28 307 38 307 48 c 6
 307 49 l 5
 312 84 343 107 357 117 c 4
 363 121 380 133 395 144 c 4
 427.004882812 166.157226562 448.444335938 181 476 181 c 4
 494.517578125 181 567 159.650390625 567 109 c 4
EndSplineSet
EndChar

StartChar: R
Encoding: 82 82 75
Width: 866
Flags: HW
HStem: -9 183<641.798 750.499> 10 164<641.798 775.03> 706 99<255.294 545.103>
VStem: 44 169<64.4233 246.373> 50 176<21.8125 229.963> 662 158<450.545 603.679>
LayerCount: 2
Fore
SplineSet
98 660 m 4xb4
 79 660 40 685 40 688 c 4
 40 698 83 734 184 767 c 4
 228 782 366 805 492 805 c 4
 551 805 629 784 658 772 c 4
 727 736 780 705 809 633 c 4
 811 628 820 602 820 533 c 4
 820 474 806 436 719 378 c 4
 686 355 577 313 517 300 c 4
 467 288 469 284 423 276 c 4
 406 273 372 266 348 261 c 4
 269 245 245 252 221 243 c 4
 217 241 213 243 213 231 c 4xb4
 213 209 222 179 225 99 c 4
 225 84 226 73 226 64 c 4
 226 39 226 27 154 -3 c 4
 136 -10 118 -22 99 -22 c 6
 97 -22 l 6
 86 -22 81 -15 66 -9 c 6
 49 -3 l 5
 50 27 l 5
 50 34 l 6xac
 50 93 44 145 44 237 c 4
 44 248 44 256 45 259 c 4
 48 275 66 281 130 313 c 4
 170 333 159 332 322 344 c 4
 440 354 454 357 568 388 c 4
 641 408 662 437 662 495 c 4
 662 532 656 604 609 649 c 4
 562 694 463 706 394 706 c 4
 344 706 201 697 137 673 c 4
 120 666 110 660 98 660 c 4xb4
583 115 m 4
 584 116 646 169 714 174 c 5
 716 174 l 6xa4
 730 174 762 165 781 148 c 4
 801 131 826 95 826 85 c 4
 826 69 784 27 751 10 c 4x64
 741 5 687 -9 670 -9 c 6
 669 -9 l 6
 649 -9 583 18 577 31 c 4
 570 46 554 55 554 75 c 4
 554 88 558 93 583 115 c 4
EndSplineSet
EndChar

StartChar: S
Encoding: 83 83 76
Width: 934
Flags: HW
HStem: -5 91<83.3289 163.967> -3 113<117.307 514.103> 312 153<460.574 551.962> 723 83<468.56 842.231>
VStem: 76 185<402.8 504.009>
LayerCount: 2
Fore
SplineSet
261 452 m 6x38
 261 443 l 6
 261 422 261 417 246 407 c 4
 231 397 171 359 123 359 c 4
 121 359 120 360 118 360 c 4
 112 361 80 375 80 375 c 5
 80 375 77 388 77 394 c 4
 77 397 76 400 76 403 c 4
 76 404 82 465 97 503 c 4
 105 522 129 569 190 626 c 4
 259 689 301 718 378 752 c 4
 424 773 498 806 672 806 c 6
 674 806 l 6
 830 806 877 781 877 773 c 4
 877 769 871 763 853 752 c 4
 835 741 825 731 813 724 c 4
 807 721 797 720 786 720 c 4
 774 720 761 721 750 721 c 6
 739 721 l 6
 710 721 680 723 651 723 c 6
 638 723 l 5
 593 722 548 725 505 714 c 4
 465 703 452 706 392 660 c 4
 342 622 313 585 284 527 c 4
 263 485 261 479 261 452 c 6x38
372 363 m 4
 372 406 498 465 508 465 c 4
 518 465 625 441 625 407 c 6
 625 406 l 6
 625 386 614 381 605 371 c 4
 592 357 528 312 489 312 c 4
 475 312 388 329 378 347 c 4
 375 353 372 357 372 363 c 4
864 456 m 6
 877 456 l 6
 892 456 894 449 894 420 c 6
 894 394 l 5
 889 214 836 177 753 120 c 4
 735 108 656 57 587 37 c 4
 584 36 464 -3 309 -3 c 6
 252 -3 l 6x78
 167 -3 116 -5 115 -5 c 4
 93 -5 87 -5 57 12 c 4
 51 16 40 22 40 24 c 4
 40 32 87 69 114 86 c 4xb8
 150 109 162 110 210 110 c 6
 229 110 l 6x78
 370 110 389 109 408 109 c 4
 425 109 553 110 623 145 c 4
 669 168 679 195 698 262 c 4
 717 323 708 382 725 392 c 4
 778 423 833 456 864 456 c 6
EndSplineSet
EndChar

StartChar: T
Encoding: 84 84 77
Width: 1000
HStem: -833.951 37.8477<96.5421 144.58> -687.859 28.791<60.4258 211.696> -660.881 1.5<40.1709 40.21>
VStem: 25.3457 187.662
LayerCount: 2
Fore
SplineSet
123.005859375 -659.068359375 m 1xd0
 195.064453125 -658.666992188 206.984375 -658.734375 206.169921875 -659.548828125 c 0
 205.325195312 -660.393554688 208.413085938 -663.87890625 210.005859375 -663.87890625 c 0
 210.66015625 -663.87890625 212.010742188 -664.782226562 213.0078125 -665.884765625 c 0
 214.517578125 -667.552734375 214.622070312 -668.265625 213.625 -670.134765625 c 0
 210.495117188 -676.001953125 210.052734375 -676.383789062 206.8125 -676.0703125 c 0
 204.276367188 -675.825195312 202.518554688 -676.661132812 198.248046875 -680.138671875 c 0
 192.055664062 -685.182617188 188.119140625 -686.412109375 173.505859375 -687.859375 c 0xd0
 163.549804688 -688.845703125 61.31640625 -690.325195312 60.42578125 -689.49609375 c 1
 60.42578125 -689.498046875 l 1
 60.1943359375 -689.282226562 54.7392578125 -688.813476562 48.3046875 -688.458984375 c 0
 38.9658203125 -687.944335938 35.470703125 -687.311523438 30.9765625 -685.32421875 c 2
 25.345703125 -682.8359375 l 1
 28.828125 -678.107421875 l 2
 30.7431640625 -675.506835938 35.1669921875 -671.184570312 38.658203125 -668.5 c 0
 45.73046875 -663.061523438 47.01171875 -660.880859375 43.13671875 -660.880859375 c 0
 41.75390625 -660.880859375 40.4130859375 -660.54296875 40.158203125 -660.130859375 c 0
 39.9033203125 -659.71875 45.8388671875 -659.380859375 53.349609375 -659.380859375 c 0xb0
 60.8603515625 -659.380859375 92.2060546875 -659.240234375 123.005859375 -659.068359375 c 1xd0
125.830078125 -796.103515625 m 0
 129.169921875 -796.30078125 133.461914062 -797.5546875 137.578125 -799.6796875 c 0
 142.118164062 -802.0234375 143.053710938 -803.041992188 144.654296875 -807.376953125 c 0
 147.256835938 -814.427734375 145.9375 -817.98828125 139.107421875 -822.357421875 c 0
 136.252929688 -824.18359375 133.313476562 -826.40625 132.57421875 -827.296875 c 0
 131.834960938 -828.1875 129.719726562 -829.6328125 127.875 -830.5078125 c 0
 123.525390625 -832.571289062 124.440429688 -833.86328125 130.314453125 -833.951171875 c 0
 139.298828125 -834.0859375 139.46875 -835.736328125 130.505859375 -835.81640625 c 0
 125.831054688 -835.858398438 120.430664062 -836.297851562 118.505859375 -836.794921875 c 0
 113.305664062 -838.13671875 108.649414062 -838.540039062 102.505859375 -838.181640625 c 0
 99.48046875 -838.005859375 95.9931640625 -837.631835938 94.755859375 -837.3515625 c 0
 92.2353515625 -836.780273438 91.64453125 -833.880859375 94.048828125 -833.880859375 c 0
 94.8974609375 -833.880859375 95.5009765625 -833.318359375 95.390625 -832.630859375 c 0
 95.279296875 -831.943359375 95.5361328125 -830.586914062 95.958984375 -829.6171875 c 0
 96.3818359375 -828.647460938 96.291015625 -827.297851562 95.755859375 -826.6171875 c 0
 95.220703125 -825.936523438 94.5205078125 -823.681640625 94.201171875 -821.603515625 c 0
 93.650390625 -818.020507812 93.939453125 -817.506835938 99.8125 -811.64453125 c 0
 103.217773438 -808.245117188 108.930664062 -803.842773438 112.505859375 -801.861328125 c 0
 116.081054688 -799.879882812 119.944335938 -797.662109375 121.091796875 -796.931640625 c 0
 122.166015625 -796.247070312 123.826171875 -795.985351562 125.830078125 -796.103515625 c 0
EndSplineSet
EndChar

StartChar: U
Encoding: 85 85 78
Width: 1000
HStem: -835.836 187.404
VStem: 566.548 40.5107<-796.129 -677.792> 696.583 43.8447<-806.212 -665.971>
LayerCount: 2
Fore
SplineSet
636.504882812 -835.8359375 m 2
 634.030273438 -835.391601562 630.092773438 -834.995117188 627.754882812 -834.954101562 c 0
 624.676757812 -834.900390625 623.504882812 -834.466796875 623.504882812 -833.379882812 c 0
 623.504882812 -831.737304688 621.950195312 -831.3515625 621.069335938 -832.776367188 c 0
 620.401367188 -833.856445312 613.712890625 -832.48828125 612.182617188 -830.958007812 c 0
 611.58984375 -830.365234375 610.39453125 -829.879882812 609.526367188 -829.879882812 c 0
 606.579101562 -829.879882812 593.720703125 -823.069335938 589.543945312 -819.295898438 c 0
 585.702148438 -815.825195312 582.174804688 -811.022460938 576.625976562 -801.708007812 c 0
 573.340820312 -796.193359375 566.21875 -759.145507812 566.547851562 -749.283203125 c 0
 566.657226562 -746.037109375 566.225585938 -742.0703125 565.588867188 -740.46875 c 0
 564.952148438 -738.868164062 564.440429688 -733.91796875 564.450195312 -729.46875 c 0
 564.4609375 -725.020507812 564.138671875 -711.772460938 563.736328125 -700.030273438 c 0
 563.061523438 -680.333007812 563.139648438 -678.607421875 564.743164062 -677.750976562 c 0
 565.69921875 -677.240234375 566.760742188 -675.709960938 567.1015625 -674.3515625 c 0
 567.442382812 -672.9921875 568.390625 -671.879882812 569.20703125 -671.879882812 c 0
 570.024414062 -671.879882812 570.928710938 -670.975585938 571.217773438 -669.869140625 c 0
 571.506835938 -668.763671875 572.927734375 -667.561523438 574.375 -667.19921875 c 0
 575.821289062 -666.836914062 579.802734375 -665.083007812 583.221679688 -663.301757812 c 0
 592.541992188 -658.446289062 599.239257812 -656.415039062 601.030273438 -657.901367188 c 0
 601.829101562 -658.564453125 602.239257812 -659.500976562 601.942382812 -659.981445312 c 0
 601.64453125 -660.462890625 602.59765625 -662.356445312 604.060546875 -664.189453125 c 2
 606.719726562 -667.522460938 l 1
 607.05859375 -697.951171875 l 2
 607.244140625 -714.6875 607.897460938 -731.754882812 608.510742188 -735.879882812 c 0
 609.124023438 -740.004882812 609.837890625 -746.069335938 610.098632812 -749.35546875 c 0
 611.046875 -761.321289062 614.569335938 -780.018554688 617.036132812 -786.181640625 c 0
 618.426757812 -789.654296875 620.947265625 -794.174804688 622.638671875 -796.2265625 c 0
 627.543945312 -802.176757812 639.301757812 -807.325195312 653.504882812 -809.743164062 c 0
 662.524414062 -811.278320312 668.875 -811.005859375 676.731445312 -808.745117188 c 0
 684.689453125 -806.455078125 687.262695312 -803.6875 691.1796875 -793.204101562 c 0
 694.145507812 -785.265625 695.266601562 -780.842773438 696.583007812 -771.879882812 c 0
 698.421875 -759.370117188 698.002929688 -719.455078125 695.67578125 -685.379882812 c 0
 694.978515625 -675.182617188 694.922851562 -668.104492188 695.51953125 -665.862304688 c 0
 696.51953125 -662.109375 704.076171875 -654.879882812 706.997070312 -654.879882812 c 0
 707.883789062 -654.879882812 710.2734375 -654.021484375 712.306640625 -652.970703125 c 0
 719.306640625 -649.357421875 721.102539062 -648.764648438 726.046875 -648.431640625 c 0
 730.748046875 -648.115234375 731.204101562 -648.313476562 734.84375 -652.239257812 c 2
 738.681640625 -656.379882812 l 1
 739.192382812 -690.879882812 l 2
 739.473632812 -709.85546875 740.029296875 -729.879882812 740.427734375 -735.379882812 c 0
 741.190429688 -745.91796875 739.2265625 -772.306640625 737.526367188 -774.35546875 c 0
 737.022460938 -774.961914062 735.208007812 -779.262695312 733.493164062 -783.913085938 c 0
 731.778320312 -788.563476562 728.874023438 -794.62109375 727.0390625 -797.374023438 c 0
 724.065429688 -801.834960938 712.243164062 -812.728515625 709.23046875 -813.78515625 c 0
 708.594726562 -814.0078125 707.383789062 -814.95703125 706.540039062 -815.89453125 c 0
 705.6953125 -816.831054688 702.530273438 -818.612304688 699.504882812 -819.8515625 c 0
 696.48046875 -821.090820312 691.754882812 -823.155273438 689.004882812 -824.4375 c 0
 686.254882812 -825.720703125 681.8671875 -827.337890625 679.254882812 -828.032226562 c 0
 676.642578125 -828.7265625 674.504882812 -829.651367188 674.504882812 -830.087890625 c 0
 674.504882812 -830.5234375 673.631835938 -830.879882812 672.564453125 -830.879882812 c 0
 671.497070312 -830.879882812 670.344726562 -831.330078125 670.004882812 -831.879882812 c 0
 669.665039062 -832.4296875 668.0859375 -832.879882812 666.495117188 -832.879882812 c 0
 664.904296875 -832.879882812 660.993164062 -833.590820312 657.803710938 -834.459960938 c 0
 650.737304688 -836.385742188 642.52734375 -836.916015625 636.504882812 -835.8359375 c 2
EndSplineSet
EndChar

StartChar: V
Encoding: 86 86 79
Width: 1000
HStem: -832.766 176.954
VStem: 1216.97 43.0039<-825.016 -804.549 -769.487 -655.375>
LayerCount: 2
Fore
SplineSet
1231.00488281 -832.765625 m 2
 1227.70507812 -832.390625 1224.67675781 -832.284179688 1224.27539062 -832.529296875 c 0
 1223.21386719 -833.176757812 1219.50488281 -830.999023438 1219.50488281 -829.728515625 c 0
 1219.50488281 -828.690429688 1206.90917969 -815.420898438 1184.50488281 -792.856445312 c 0
 1169.88183594 -778.12890625 1161.82421875 -769.268554688 1145.88085938 -750.381835938 c 0
 1132.01660156 -733.958007812 1116.46582031 -714.30859375 1111.50488281 -706.947265625 c 0
 1107.50683594 -701.014648438 1093.08203125 -683.872070312 1087.046875 -677.881835938 c 0
 1083.99902344 -674.856445312 1081.50585938 -671.94140625 1081.50585938 -671.403320312 c 0
 1081.50488281 -669.724609375 1089.65917969 -662.881835938 1091.66015625 -662.881835938 c 0
 1092.70605469 -662.881835938 1096.22558594 -661.537109375 1099.48144531 -659.893554688 c 0
 1103.62011719 -657.803710938 1107.44726562 -656.740234375 1112.203125 -656.358398438 c 2
 1119.00488281 -655.811523438 l 1
 1129.78125 -667.596679688 l 2
 1135.70898438 -674.078125 1144.17089844 -684.106445312 1148.5859375 -689.881835938 c 0
 1153.00097656 -695.65625 1159.70507812 -704.431640625 1163.48339844 -709.381835938 c 0
 1167.26171875 -714.331054688 1171.84960938 -720.028320312 1173.67871094 -722.041015625 c 0
 1177.04003906 -725.73828125 1183.1171875 -733.010742188 1192.74316406 -744.856445312 c 0
 1195.63671875 -748.41796875 1198.6796875 -752.05078125 1199.50488281 -752.9296875 c 0
 1211.2421875 -765.426757812 1215.71191406 -769.881835938 1216.51269531 -769.881835938 c 0
 1217.07617188 -769.881835938 1217.26367188 -767.499023438 1216.96679688 -764.131835938 c 0
 1216.6875 -760.96875 1216.27441406 -744.881835938 1216.04882812 -728.381835938 c 0
 1215.82421875 -711.881835938 1215.43945312 -696.806640625 1215.19433594 -694.881835938 c 0
 1214.41210938 -688.747070312 1214.14355469 -667.909179688 1214.83789062 -667.215820312 c 0
 1215.20507812 -666.848632812 1215.50488281 -665.362304688 1215.50488281 -663.9140625 c 0
 1215.50488281 -660.190429688 1217.65234375 -656.09765625 1220.00488281 -655.336914062 c 0
 1221.10546875 -654.981445312 1228.75488281 -654.139648438 1237.00488281 -653.466796875 c 0
 1250.40234375 -652.375 1252.11132812 -652.412109375 1252.99707031 -653.8125 c 0
 1254.96777344 -656.928710938 1256.54394531 -668.740234375 1257.4375 -687.1015625 c 0
 1257.93945312 -697.397460938 1258.5625 -706.171875 1258.82324219 -706.6015625 c 0
 1259.08398438 -707.030273438 1259.59960938 -723.112304688 1259.97070312 -742.33984375 c 0
 1260.34082031 -761.56640625 1260.78417969 -777.541015625 1260.95507812 -777.83984375 c 0
 1261.12597656 -778.137695312 1261.578125 -785.076171875 1261.95898438 -793.259765625 c 0
 1262.33984375 -801.442382812 1263.10644531 -809.317382812 1263.66210938 -810.759765625 c 0
 1264.96777344 -814.1484375 1263.82714844 -822.868164062 1261.78320312 -825.126953125 c 0
 1260.91015625 -826.091796875 1259.39160156 -826.881835938 1258.40917969 -826.881835938 c 0
 1257.42675781 -826.881835938 1256.37597656 -827.28125 1256.07324219 -827.770507812 c 0
 1255.77148438 -828.259765625 1254.28222656 -828.969726562 1252.76464844 -829.348632812 c 0
 1251.24707031 -829.727539062 1249.33007812 -830.622070312 1248.50488281 -831.336914062 c 0
 1246.58984375 -832.99609375 1238.703125 -833.639648438 1231.00488281 -832.765625 c 2
EndSplineSet
EndChar

StartChar: W
Encoding: 87 87 80
Width: 1000
HStem: -827.926 27.2734<1388.91 1498.99> -742.881 1.57812<1339.51 1343.47>
VStem: 1344.11 41.8965<-799.277 -784.828 -687.85 -663.82> 1499.05 42.4766<-805.878 -660.381>
LayerCount: 2
Fore
SplineSet
1529.2734375 -649.41015625 m 2
 1529.27441406 -649.41015625 l 2
 1531.05175781 -649.349609375 1533.49707031 -650.565429688 1534.26269531 -652.224609375 c 0
 1536.19921875 -656.418945312 1537.50488281 -666.642578125 1537.54785156 -677.94140625 c 0
 1537.5703125 -684.233398438 1538.01757812 -694.10546875 1538.53808594 -699.880859375 c 0
 1539.05761719 -705.65625 1539.77246094 -716.680664062 1540.12792969 -724.380859375 c 0
 1540.48242188 -732.081054688 1541.21777344 -738.943359375 1541.76074219 -739.630859375 c 0
 1542.42382812 -740.470703125 1542.3515625 -741.360351562 1541.54003906 -742.337890625 c 0
 1540.87597656 -743.138671875 1540.58007812 -744.194335938 1540.88378906 -744.685546875 c 0
 1541.18652344 -745.176757812 1541.47753906 -753.859375 1541.53027344 -763.98046875 c 0
 1541.58300781 -774.1015625 1542.28808594 -788.138671875 1543.09667969 -795.17578125 c 0
 1544.59765625 -808.2421875 1544.47070312 -809.880859375 1541.94628906 -809.880859375 c 0
 1540.05566406 -809.880859375 1540.11523438 -811.881835938 1542.09277344 -814.705078125 c 0
 1544.36328125 -817.947265625 1543.30859375 -819.55078125 1537.09472656 -822.298828125 c 0
 1534.08496094 -823.629882812 1531.03808594 -825.65625 1530.32324219 -826.80078125 c 0
 1529.60839844 -827.9453125 1528.02148438 -828.880859375 1526.79785156 -828.880859375 c 0
 1525.57421875 -828.880859375 1522.64648438 -829.512695312 1520.29003906 -830.28515625 c 0
 1515.96777344 -831.702148438 1471.61621094 -833.670898438 1470.45019531 -832.498046875 c 0
 1470.14257812 -832.189453125 1462.56152344 -831.698242188 1453.60058594 -831.40625 c 0
 1444.63867188 -831.114257812 1436.89355469 -830.62109375 1436.39160156 -830.310546875 c 0
 1435.88867188 -830 1424.12109375 -829.563476562 1410.24121094 -829.33984375 c 0
 1396.36132812 -829.116210938 1383.20703125 -828.479492188 1381.00683594 -827.92578125 c 0
 1378.80664062 -827.372070312 1369.35644531 -826.412109375 1360.00683594 -825.791015625 c 0
 1350.65722656 -825.169921875 1342.66015625 -824.340820312 1342.23535156 -823.94921875 c 0
 1341.81054688 -823.557617188 1341.94042969 -819.896484375 1342.52246094 -815.810546875 c 0
 1343.10546875 -811.724609375 1343.81835938 -793.643554688 1344.10839844 -775.630859375 c 2
 1344.63574219 -742.880859375 l 1
 1342.07128906 -742.880859375 l 2
 1340.66015625 -742.880859375 1339.50683594 -742.508789062 1339.50683594 -742.052734375 c 0
 1339.50683594 -741.596679688 1340.51953125 -741.258789062 1341.75683594 -741.302734375 c 0
 1343.9453125 -741.379882812 1344.02539062 -741.026367188 1344.68457031 -728.380859375 c 0
 1346.82324219 -687.385742188 1347.25195312 -675.795898438 1346.78027344 -671.615234375 c 0
 1346.32617188 -667.583984375 1346.62207031 -666.533203125 1349.01660156 -663.6875 c 0
 1353.95410156 -657.8203125 1363.62207031 -654.625 1376.86425781 -654.486328125 c 2
 1386.89746094 -654.380859375 l 1
 1388.15527344 -660.380859375 l 2
 1389.87597656 -668.59765625 1390.33789062 -678.931640625 1389.38183594 -687.849609375 c 0
 1388.67089844 -694.483398438 1387.06054688 -744.939453125 1386.28613281 -784.828125 c 2
 1386.00488281 -799.27734375 l 1
 1394.50488281 -800.65234375 l 2
 1399.72949219 -801.498046875 1410.32714844 -802.000976562 1422.00488281 -801.958984375 c 0
 1433.17382812 -801.918945312 1445.33300781 -802.473632812 1451.50488281 -803.3046875 c 0
 1464.77929688 -805.091796875 1493.04882812 -807.231445312 1497.00488281 -806.748046875 c 0
 1499.75976562 -806.411132812 1499.984375 -806.094726562 1499.73730469 -802.880859375 c 0
 1499.58984375 -800.956054688 1499.28125 -791.956054688 1499.05371094 -782.880859375 c 0
 1497.76464844 -731.592773438 1497.29785156 -715.877929688 1496.93066406 -711.380859375 c 0
 1495.75878906 -697.0390625 1494.63085938 -676.39453125 1494.60839844 -668.880859375 c 2
 1494.58203125 -660.380859375 l 1
 1498.79296875 -657.2890625 l 2
 1502.87792969 -654.2890625 1508.82910156 -652.77734375 1523.00390625 -651.138671875 c 0
 1525.20410156 -650.884765625 1527.36425781 -650.33984375 1527.8046875 -649.927734375 c 0
 1528.16308594 -649.592773438 1528.68066406 -649.428710938 1529.2734375 -649.41015625 c 2
1440.27734375 -718.33984375 m 1
 1440.45703125 -718.344726562 1440.63574219 -718.377929688 1440.80664062 -718.443359375 c 0
 1442.01855469 -718.908203125 1461.02636719 -720.842773438 1465.03320312 -720.908203125 c 0
 1466.1484375 -720.926757812 1467.69726562 -721.938476562 1468.47460938 -723.16015625 c 0
 1470.35546875 -726.114257812 1471.53515625 -735.03125 1470.2578125 -736.630859375 c 0
 1469.58496094 -737.47265625 1469.62890625 -738.326171875 1470.39257812 -739.24609375 c 0
 1472.29296875 -741.536132812 1467.56152344 -749.145507812 1463.50585938 -750.318359375 c 0
 1462.13085938 -750.715820312 1459.53320312 -751.705078125 1457.734375 -752.517578125 c 0
 1454.6640625 -753.904296875 1442.20214844 -756.909179688 1440.00585938 -756.79296875 c 0
 1439.45605469 -756.762695312 1438.10546875 -756.34765625 1437.00585938 -755.869140625 c 0
 1435.90527344 -755.390625 1433.17382812 -755.237304688 1430.93554688 -755.52734375 c 0
 1427.56835938 -755.963867188 1426.33691406 -755.610351562 1423.80859375 -753.482421875 c 0
 1420.84863281 -750.991210938 1417.48730469 -743.434570312 1418.28125 -741.052734375 c 0
 1418.49609375 -740.409179688 1419.30859375 -739.880859375 1420.08789062 -739.880859375 c 0
 1421.10644531 -739.880859375 1421.51464844 -738.546875 1421.53710938 -735.130859375 c 0
 1421.55566406 -732.518554688 1422.1171875 -729.706054688 1422.78710938 -728.880859375 c 0
 1424.59960938 -726.649414062 1432.53417969 -722.78125 1433.75390625 -723.53515625 c 0
 1434.37695312 -723.919921875 1434.52050781 -723.712890625 1434.09960938 -723.033203125 c 0
 1433.66699219 -722.333007812 1434.35644531 -721.5078125 1435.84765625 -720.94140625 c 0
 1437.20214844 -720.426757812 1438.59277344 -719.545898438 1438.93945312 -718.986328125 c 0
 1439.19921875 -718.56640625 1439.73730469 -718.32421875 1440.27734375 -718.33984375 c 1
EndSplineSet
EndChar

StartChar: X
Encoding: 88 88 81
Width: 1000
HStem: -826.826 39.5488<1967.42 2010.27> -826.805 0.908203<1965.63 1973.01> -693.355 37.4844<2107.57 2163.8>
VStem: 1966.51 61.9961<-824.666 -791.763> 2034.94 60.5703<-754.816 -718.54> 2103.58 60.2832<-691.507 -660.431>
LayerCount: 2
Fore
SplineSet
2142.16015625 -648.076171875 m 1x3c
 2142.16015625 -648.07421875 l 1
 2146.89648438 -648.153320312 2149.39746094 -648.262695312 2149.54101562 -648.38671875 c 2
 2149.54296875 -648.388671875 l 1
 2149.54492188 -648.390625 l 1
 2149.54492188 -648.392578125 l 2
 2149.54492188 -648.396484375 2149.54492188 -648.399414062 2149.54492188 -648.400390625 c 2
 2149.54492188 -648.40234375 l 1
 2149.54296875 -648.404296875 l 1
 2149.54101562 -648.40625 l 2
 2149.4765625 -648.473632812 2148.73925781 -648.546875 2147.30859375 -648.62109375 c 0
 2141.56835938 -648.919921875 2140.51757812 -649.265625 2139.95117188 -651.048828125 c 0
 2139.04882812 -653.891601562 2140.91308594 -654.846679688 2147.41015625 -654.865234375 c 0
 2154.34960938 -654.883789062 2158.24414062 -657.711914062 2161.86523438 -665.359375 c 0
 2163.99121094 -669.848632812 2164.38769531 -671.793945312 2163.86523438 -675.169921875 c 0
 2162.65234375 -683.014648438 2152.20019531 -690.275390625 2139.74023438 -691.9296875 c 0
 2136.03613281 -692.421875 2131.34179688 -693.063476562 2129.30859375 -693.35546875 c 0
 2126.30664062 -693.787109375 2124.14550781 -693.119140625 2117.80859375 -689.798828125 c 0
 2107.95019531 -684.634765625 2104.97460938 -681.8046875 2103.58203125 -676.2734375 c 0
 2102.00585938 -670.013671875 2104.12597656 -661.452148438 2107.51953125 -660.375 c 0
 2108.50976562 -660.060546875 2111.03710938 -658.034179688 2113.13671875 -655.87109375 c 0
 2118.84179688 -649.9921875 2126.91699219 -647.82421875 2142.16015625 -648.076171875 c 1x3c
2000.87304688 -648.8515625 m 2
 2002.44335938 -648.876953125 2003.85546875 -649.078125 2004.92382812 -649.48828125 c 0
 2005.79394531 -649.822265625 2006.50585938 -650.909179688 2006.50585938 -651.904296875 c 0
 2006.50585938 -652.899414062 2006.89453125 -653.865234375 2007.36914062 -654.048828125 c 0
 2007.84375 -654.232421875 2011.984375 -658.65625 2016.56835938 -663.880859375 c 0
 2021.15234375 -669.10546875 2026.04980469 -674.551757812 2027.453125 -675.982421875 c 0
 2033.4296875 -682.077148438 2053.92089844 -701.064453125 2063.49609375 -709.380859375 c 0
 2075.43457031 -719.75 2086.72265625 -730.16015625 2090.33398438 -734.130859375 c 0
 2091.70996094 -735.643554688 2093.43554688 -736.880859375 2094.16992188 -736.880859375 c 0
 2094.90429688 -736.880859375 2095.50585938 -737.341796875 2095.50585938 -737.904296875 c 0
 2095.50585938 -740.595703125 2125.25878906 -768.775390625 2138.87304688 -778.9765625 c 0
 2152.49121094 -789.180664062 2169.07421875 -807.584960938 2168.32226562 -811.66015625 c 0
 2168.14746094 -812.606445312 2165.53125 -814.608398438 2162.50585938 -816.109375 c 0
 2159.48046875 -817.610351562 2156.10546875 -819.41015625 2155.00585938 -820.109375 c 0
 2153.90625 -820.80859375 2151.74902344 -821.60546875 2150.21484375 -821.880859375 c 0
 2148.68066406 -822.15625 2147.55566406 -822.831054688 2147.71484375 -823.380859375 c 0
 2148.01269531 -824.411132812 2149.58398438 -824.630859375 2157.75585938 -824.7890625 c 0
 2160.36816406 -824.83984375 2162.50585938 -825.318359375 2162.50585938 -825.8515625 c 0
 2162.50585938 -826.384765625 2161.00097656 -826.764648438 2159.16210938 -826.6953125 c 0
 2157.32324219 -826.625976562 2155.36035156 -826.8515625 2154.80078125 -827.197265625 c 0
 2154.24121094 -827.54296875 2153.52832031 -827.5703125 2153.21484375 -827.2578125 c 0
 2152.90136719 -826.944335938 2145.33789062 -826.711914062 2136.40625 -826.73828125 c 0
 2119.89746094 -826.790039062 2113.17089844 -825.7890625 2123.92773438 -824.880859375 c 0
 2130.07421875 -824.362304688 2132.31445312 -822.560546875 2128.31054688 -821.357421875 c 0
 2127.04296875 -820.9765625 2122.40625 -816.958984375 2118.00585938 -812.427734375 c 0
 2113.60546875 -807.896484375 2107.77734375 -802.432617188 2105.0546875 -800.28515625 c 0
 2102.33203125 -798.137695312 2097.83203125 -794.283203125 2095.0546875 -791.71875 c 0
 2092.27734375 -789.154296875 2088.20605469 -785.630859375 2086.00585938 -783.888671875 c 0
 2081.43164062 -780.267578125 2072.27734375 -771.571289062 2068.328125 -767.095703125 c 0
 2066.85546875 -765.426757812 2065.05175781 -763.684570312 2064.3203125 -763.22265625 c 0
 2063.58886719 -762.760742188 2060.81152344 -759.919921875 2058.1484375 -756.912109375 c 0
 2051.046875 -748.892578125 2040.43164062 -739.817382812 2037.45703125 -739.22265625 c 0
 2035.72753906 -738.876953125 2034.88867188 -738.07421875 2034.93554688 -736.8125 c 0
 2034.97851562 -735.66015625 2032.00878906 -732.278320312 2027.33398438 -728.15234375 c 0
 2018.10253906 -720.004882812 1997.03613281 -700.612304688 1989.74414062 -693.55078125 c 0
 1986.85058594 -690.748046875 1983.27441406 -686.638671875 1981.796875 -684.41796875 c 0
 1980.31933594 -682.197265625 1978.09863281 -679.255859375 1976.86328125 -677.880859375 c 0
 1975.62792969 -676.505859375 1973.25878906 -672.834960938 1971.59960938 -669.72265625 c 2
 1968.58203125 -664.064453125 l 1
 1972.79296875 -660.482421875 l 2
 1975.109375 -658.51171875 1978.9921875 -656.22265625 1981.421875 -655.39453125 c 0
 1983.8515625 -654.56640625 1986.55078125 -653.276367188 1987.421875 -652.52734375 c 0
 1990.02246094 -650.2890625 1996.16210938 -648.776367188 2000.87304688 -648.8515625 c 2
2005.27539062 -787.27734375 m 0xbc
 2006.35058594 -787.284179688 2007.21289062 -787.466796875 2008.07617188 -787.77734375 c 0
 2009.765625 -788.383789062 2011.86816406 -788.880859375 2012.75 -788.880859375 c 0
 2013.63085938 -788.880859375 2016.41601562 -790.456054688 2018.9375 -792.380859375 c 0
 2021.45898438 -794.305664062 2024.12207031 -795.880859375 2024.85546875 -795.880859375 c 0
 2026.140625 -795.880859375 2028.50585938 -801.92578125 2028.50585938 -805.212890625 c 0
 2028.50585938 -808.619140625 2025.15136719 -813.520507812 2020.67773438 -816.650390625 c 0
 2018.10742188 -818.448242188 2014.69921875 -820.997070312 2013.1015625 -822.3125 c 2
 2010.19726562 -824.703125 l 1
 2014.6015625 -825.685546875 l 2
 2018.3515625 -826.521484375 2017.07421875 -826.690429688 2006.00585938 -826.826171875 c 0xbc
 1998.85546875 -826.913085938 1986.52148438 -827.145507812 1978.59570312 -827.341796875 c 0
 1969.90625 -827.556640625 1964.74609375 -827.342773438 1965.59570312 -826.8046875 c 0
 1966.37109375 -826.313476562 1968.24316406 -825.904296875 1969.75585938 -825.896484375 c 0x7c
 1973.01464844 -825.877929688 1973.234375 -824.8515625 1970.50976562 -822.38671875 c 0
 1968.29980469 -820.38671875 1966.51757812 -815.016601562 1966.50976562 -810.328125 c 0
 1966.50585938 -808.155273438 1967.5 -806.309570312 1969.95507812 -803.9296875 c 0
 1971.85253906 -802.090820312 1973.54003906 -799.731445312 1973.70507812 -798.6875 c 0
 1973.93066406 -797.262695312 1976.5 -795.920898438 1984.00585938 -793.30859375 c 0
 1996.90039062 -788.8203125 2002.04882812 -787.254882812 2005.27539062 -787.27734375 c 0xbc
EndSplineSet
EndChar

StartChar: Y
Encoding: 89 89 82
Width: 1000
HStem: -939.879 24.2871<204.561 214.208>
VStem: 105.506 37<-1096.62 -1031.35> 143.506 33.9766<-1010.65 -973.457> 172.506 39<-972.487 -917.955>
LayerCount: 2
Fore
SplineSet
210.04296875 -915.591796875 m 1xd0
 212.0546875 -915.745117188 212.208984375 -916.77734375 213.10546875 -919.724609375 c 0
 213.330078125 -920.463867188 214.431640625 -921.30859375 215.55078125 -921.6015625 c 0
 217.442382812 -922.095703125 217.470703125 -922.260742188 215.9609375 -923.9296875 c 0
 215.067382812 -924.916992188 214.087890625 -927.569335938 213.78515625 -929.826171875 c 0
 213.482421875 -932.08203125 212.846679688 -934.168945312 212.37109375 -934.462890625 c 0
 211.895507812 -934.756835938 211.505859375 -936.096679688 211.505859375 -937.439453125 c 0xd0
 211.505859375 -938.78125 211.157226562 -939.87890625 210.732421875 -939.87890625 c 0
 209.831054688 -939.87890625 206.958984375 -945.266601562 205.93359375 -948.880859375 c 0
 205.543945312 -950.255859375 203.48828125 -953.94140625 201.365234375 -957.07421875 c 0
 199.2421875 -960.206054688 197.505859375 -963.604492188 197.505859375 -964.625 c 0
 197.505859375 -965.64453125 196.96484375 -967.01953125 196.3046875 -967.6796875 c 0
 195.64453125 -968.33984375 195.41796875 -968.87890625 195.80078125 -968.87890625 c 0
 196.92578125 -968.87890625 188.8984375 -983.578125 185.564453125 -987.623046875 c 0
 183.881835938 -989.6640625 182.505859375 -992.0546875 182.505859375 -992.93359375 c 0
 182.505859375 -993.8125 181.380859375 -995.588867188 180.005859375 -996.880859375 c 0
 178.630859375 -998.172851562 177.494140625 -999.712890625 177.482421875 -1000.30371094 c 0
 177.470703125 -1000.89550781 176.581054688 -1002.50488281 175.505859375 -1003.87988281 c 0
 172.872070312 -1007.24707031 173.010742188 -1008.29785156 176.255859375 -1009.58007812 c 2
 179.005859375 -1010.66796875 l 1
 176.322265625 -1010.7734375 l 2
 173.243164062 -1010.89453125 171.041992188 -1013.57910156 166.978515625 -1022.16210938 c 0
 165.482421875 -1025.32226562 163.188476562 -1028.91210938 161.880859375 -1030.14257812 c 0
 160.573242188 -1031.37207031 159.029296875 -1034.08984375 158.451171875 -1036.18164062 c 0
 157.873046875 -1038.2734375 156.524414062 -1040.86035156 155.453125 -1041.93164062 c 0
 154.381835938 -1043.00292969 153.508789062 -1044.10839844 153.515625 -1044.38476562 c 0
 153.548828125 -1045.87402344 150.469726562 -1051.87890625 149.671875 -1051.87890625 c 0
 148.7734375 -1051.87890625 147.774414062 -1054.19238281 146.876953125 -1058.34375 c 0
 146.643554688 -1059.42382812 145.564453125 -1061.25195312 144.478515625 -1062.40820312 c 0
 143.392578125 -1063.56347656 142.505859375 -1065.69042969 142.505859375 -1067.13476562 c 0
 142.505859375 -1068.58007812 142.068359375 -1070.03027344 141.53515625 -1070.359375 c 0
 141.001953125 -1070.68847656 139.654296875 -1074.0234375 138.5390625 -1077.76757812 c 0
 135.948242188 -1086.46777344 133.33203125 -1090.20898438 126.505859375 -1094.9765625 c 0
 121.583984375 -1098.4140625 120.204101562 -1098.86914062 113.38671875 -1099.3125 c 0
 109.196289062 -1099.58496094 105.57421875 -1099.61523438 105.337890625 -1099.37695312 c 1
 105.337890625 -1099.37890625 l 1
 105.1015625 -1099.140625 101.634765625 -1098.83496094 97.6328125 -1098.69921875 c 0
 93.630859375 -1098.55957031 90.1376953125 -1098.09570312 89.87109375 -1097.6640625 c 0
 89.6044921875 -1097.234375 89.8154296875 -1096.87890625 90.337890625 -1096.87890625 c 0
 90.8603515625 -1096.87890625 91.59765625 -1095.65039062 91.974609375 -1094.14648438 c 0
 92.6484375 -1091.46191406 98.3955078125 -1077.50488281 103.111328125 -1067.09960938 c 0
 104.427734375 -1064.19628906 105.505859375 -1061.6796875 105.505859375 -1061.50585938 c 0
 105.505859375 -1061.33203125 108.947265625 -1054.93261719 113.15625 -1047.28515625 c 0
 117.365234375 -1039.63769531 122.248046875 -1030.68066406 124.0078125 -1027.38085938 c 0
 125.767578125 -1024.08007812 128.173828125 -1019.8046875 129.353515625 -1017.87890625 c 0
 130.533203125 -1015.95410156 131.5 -1013.4375 131.501953125 -1012.28515625 c 0
 131.50390625 -1011.1328125 132.322265625 -1009.45019531 133.322265625 -1008.54492188 c 0
 134.322265625 -1007.640625 136.165039062 -1004.84667969 137.41796875 -1002.33789062 c 0
 138.670898438 -999.829101562 140.5546875 -997.2421875 141.6015625 -996.587890625 c 0
 142.6484375 -995.93359375 143.505859375 -994.76953125 143.505859375 -994.001953125 c 0xe0
 143.505859375 -993.233398438 146.842773438 -985.803710938 150.921875 -977.4921875 c 0
 161.807617188 -955.310546875 167.111328125 -943.75390625 167.916015625 -940.458984375 c 0
 168.30859375 -938.852539062 169.500976562 -936.428710938 170.56640625 -935.07421875 c 0
 171.631835938 -933.71875 172.505859375 -931.728515625 172.505859375 -930.650390625 c 0
 172.505859375 -926.623046875 175.594726562 -923.306640625 181.357421875 -921.150390625 c 0
 189.151367188 -918.234375 194.680664062 -916.978515625 203.85546875 -916.041015625 c 0
 206.9609375 -915.723632812 208.8359375 -915.5 210.04296875 -915.591796875 c 1xd0
67.296875 -918.5859375 m 0
 71.3916015625 -918.479492188 75.0009765625 -918.973632812 76.724609375 -920.103515625 c 0
 77.9951171875 -920.935546875 80.490234375 -921.935546875 82.26953125 -922.326171875 c 0
 85.5625 -923.049804688 86.5078125 -924.376953125 84.263671875 -925.125 c 0
 83.388671875 -925.416992188 83.5771484375 -926.094726562 84.90234375 -927.419921875 c 0
 87.517578125 -930.03515625 89.505859375 -935.166015625 89.505859375 -939.302734375 c 0
 89.505859375 -953.138671875 57.7578125 -966.578125 41.005859375 -959.833984375 c 0
 32.146484375 -956.267578125 26.947265625 -947.12890625 29.455078125 -939.53125 c 0
 31.421875 -933.573242188 43.5009765625 -924.637695312 54.9609375 -920.666015625 c 0
 58.6220703125 -919.397460938 63.2021484375 -918.692382812 67.296875 -918.5859375 c 0
EndSplineSet
EndChar

StartChar: Z
Encoding: 90 90 83
Width: 1000
HStem: -1098.88 16<474.334 481.409> -1097.88 26.5293<302.622 387.505 387.505 475.405> -1009.88 0.40625<425.192 425.422> -949.893 24.5635<294.205 429.755>
LayerCount: 2
Fore
SplineSet
384.504882812 -1015.296875 m 0x30
 383.129882812 -1014.53320312 381.10546875 -1013.89550781 380.004882812 -1013.87890625 c 0
 375.272460938 -1013.80761719 373.686523438 -1009.99707031 377.067382812 -1006.82128906 c 0
 379.975585938 -1004.08886719 387.504882812 -992.719726562 387.504882812 -991.060546875 c 0
 387.504882812 -990.411132812 387.930664062 -989.879882812 388.450195312 -989.879882812 c 0
 388.969726562 -989.879882812 391.33203125 -987.759765625 393.700195312 -985.168945312 c 0
 396.067382812 -982.578125 405.317382812 -973.180664062 414.254882812 -964.286132812 c 0
 429.0625 -949.548828125 431.94140625 -945.880859375 429.754882812 -944.536132812 c 0
 429.342773438 -944.283203125 421.8046875 -944.46875 413.004882812 -944.952148438 c 0
 404.205078125 -945.434570312 392.73046875 -946.056640625 387.504882812 -946.333984375 c 0
 349.296875 -948.365234375 336.430664062 -949.075195312 332.504882812 -949.370117188 c 0
 330.030273438 -949.555664062 321.67578125 -949.791015625 313.940429688 -949.892578125 c 0
 301.237304688 -950.05859375 299.541992188 -949.892578125 296.440429688 -947.981445312 c 0
 294.55078125 -946.829101562 292.244140625 -945.885742188 291.314453125 -945.883789062 c 0
 288.020507812 -945.883789062 288.515625 -943.934570312 293.138671875 -938.728515625 c 0
 297.8515625 -933.422851562 300.252929688 -931.685546875 308.504882812 -927.612304688 c 0
 312.254882812 -925.760742188 314.754882812 -925.380859375 323.504882812 -925.329101562 c 0
 337.055664062 -925.249023438 359.701171875 -923.745117188 358.9375 -922.975585938 c 0
 358.61328125 -922.647460938 354.4453125 -922.151367188 349.67578125 -921.872070312 c 0
 344.907226562 -921.592773438 357.879882812 -921.282226562 378.504882812 -921.181640625 c 0
 399.129882812 -921.08203125 427.784179688 -920.74609375 442.181640625 -920.436523438 c 0
 458.3125 -920.08984375 469.346679688 -920.25 470.936523438 -920.854492188 c 0
 472.35546875 -921.393554688 474.264648438 -923.404296875 475.178710938 -925.322265625 c 0
 476.608398438 -928.319335938 476.665039062 -929.40234375 475.583984375 -933.01171875 c 0
 473.819335938 -938.90234375 462.946289062 -951.435546875 448.013671875 -964.793945312 c 0
 441.133789062 -970.947265625 435.504882812 -976.353515625 435.504882812 -976.806640625 c 0
 435.504882812 -977.259765625 432.610351562 -980.858398438 429.073242188 -984.803710938 c 0
 425.53515625 -988.749023438 421.286132812 -994.377929688 419.630859375 -997.311523438 c 0
 416.639648438 -1002.61035156 411.4375 -1006.87988281 407.970703125 -1006.87988281 c 0
 406.981445312 -1006.87988281 406.453125 -1007.16308594 406.797851562 -1007.50585938 c 0
 407.141601562 -1007.84960938 411.37890625 -1008.34277344 416.213867188 -1008.59960938 c 0
 421.048828125 -1008.85644531 425.192382812 -1009.25097656 425.421875 -1009.47363281 c 0
 425.650390625 -1009.69726562 420.909179688 -1009.87988281 414.883789062 -1009.87988281 c 0
 404.635742188 -1009.87988281 403.38671875 -1010.10644531 395.504882812 -1013.37988281 c 0
 390.87109375 -1015.3046875 387.063476562 -1016.8359375 387.04296875 -1016.78222656 c 0
 387.0234375 -1016.72851562 385.879882812 -1016.05957031 384.504882812 -1015.296875 c 0x30
387.504882812 -1104.08203125 m 2
 387.504882812 -1103.16015625 384.576171875 -1102.85546875 357.004882812 -1100.90820312 c 0
 348.754882812 -1100.32519531 338.1796875 -1099.40625 333.504882812 -1098.86621094 c 0
 328.830078125 -1098.32714844 320.383789062 -1097.88476562 314.735351562 -1097.8828125 c 0
 305.473632812 -1097.87988281 304.072265625 -1097.6328125 300.458007812 -1095.34960938 c 2
 296.450195312 -1092.8203125 l 1
 299.442382812 -1088.47070312 l 2
 301.088867188 -1086.078125 303.078125 -1083.87402344 303.864257812 -1083.57226562 c 0
 304.650390625 -1083.26953125 307.961914062 -1080.99414062 311.223632812 -1078.51464844 c 0
 320.684570312 -1071.31835938 323.704101562 -1070.47363281 336.828125 -1071.35351562 c 0x70
 342.975585938 -1071.765625 358.249023438 -1072.22753906 370.770507812 -1072.38085938 c 0
 386.848632812 -1072.578125 393.967773438 -1073.01855469 395.005859375 -1073.87988281 c 0
 395.975585938 -1074.68457031 399.032226562 -1074.97070312 403.990234375 -1074.72070312 c 0
 409.81640625 -1074.42578125 411.504882812 -1074.64453125 411.504882812 -1075.68945312 c 0
 411.504882812 -1076.63085938 412.336914062 -1076.86914062 414.254882812 -1076.47851562 c 0
 415.767578125 -1076.16894531 429.942382812 -1075.796875 445.75390625 -1075.64941406 c 0
 464.059570312 -1075.47851562 474.508789062 -1075.01660156 474.51953125 -1074.37988281 c 0
 474.52734375 -1073.83007812 474.9375 -1074.01367188 475.427734375 -1074.7890625 c 0
 476.477539062 -1076.44628906 475.698242188 -1079.1171875 474.400390625 -1078.31542969 c 0
 472.956054688 -1077.42285156 473.369140625 -1078.69824219 475.227539062 -1080.86816406 c 0
 476.174804688 -1081.97460938 477.455078125 -1082.87988281 478.072265625 -1082.87988281 c 0
 479.848632812 -1082.87988281 482.504882812 -1086.33300781 482.504882812 -1088.64160156 c 0
 482.504882812 -1089.85742188 481.671875 -1091.00976562 480.530273438 -1091.37207031 c 0
 479.444335938 -1091.71582031 477.094726562 -1093.546875 475.310546875 -1095.43945312 c 0
 473.525390625 -1097.33105469 471.544921875 -1098.87988281 470.909179688 -1098.87988281 c 0xb0
 470.2734375 -1098.87988281 467.274414062 -1099.9765625 464.243164062 -1101.31738281 c 0
 458.740234375 -1103.75097656 458.685546875 -1103.75390625 424.225585938 -1103.69238281 c 0
 405.24609375 -1103.65429688 389.219726562 -1103.9375 388.611328125 -1104.31445312 c 0
 388.002929688 -1104.69238281 387.504882812 -1104.5859375 387.504882812 -1104.08398438 c 2
 387.504882812 -1104.08203125 l 2
EndSplineSet
EndChar

StartChar: P
Encoding: 80 80 84
Width: 824
Flags: HW
HStem: 221 107<105.073 547.432> 692 111<136.14 501.132>
VStem: 629 155<406.957 585.308>
LayerCount: 2
Fore
SplineSet
136 681 m 0
 111.228515625 681 60.6396484375 705 54 705 c 0
 53 705 53 706 53 707 c 0
 53 719.952148438 129.677734375 793.018554688 158 796 c 0
 220 802 263 803 304 803 c 0
 332 803 358 802 389 802 c 0
 458.424804688 802 579.529296875 802 708 711 c 0
 757 677 784 622 784 539 c 0
 784 511 780 478 774 443 c 0
 765 393 738 375 713 347 c 0
 662.083984375 291.235351562 557.46875 241.8671875 510 230 c 0
 509.021484375 229.733398438 468.044921875 221 409 221 c 2
 376 221 l 2
 351 221 325 222 300 222 c 2
 299 222 l 2
 260 222 221 220 182 220 c 2
 174 220 l 2
 152 220 126 218 104 218 c 0
 55.10546875 218 40.208984375 234.372070312 40 235 c 2
 40 236 l 2
 40 250.896484375 80.90625 291.270507812 133 326 c 1
 217 328 267 329 333 329 c 2
 339 329 l 2
 361 329 383 328 405 328 c 2
 501 328 l 1
 507 327 512 327 518 327 c 0
 567 327 596 346 619 380 c 0
 625 389 629 428 629 466 c 0
 629 563.296875 604.513671875 601.006835938 574 628 c 0
 504.815429688 687.75 431.9296875 692 331 692 c 0
 206.18359375 692 137.953125 681 136 681 c 0
184 164 m 0
 222.893554688 164 286 140.165039062 286 114 c 0
 286 86 260 55 212 27 c 0
 178 7 164 -7 141 -10 c 1
 133 -10 l 2
 97.9150390625 -10 61.9296875 2.4501953125 55 14 c 0
 48 25 42 35 42 46 c 0
 42 48 43 49 43 51 c 0
 48 79 76 97 97 117 c 0
 107 126 116 131 130 142 c 0
 155 162 165 164 184 164 c 0
EndSplineSet
EndChar

